<?xml version="1.0" standalone="no"?>
<!DOCTYPE svg PUBLIC "-//W3C//DTD SVG 20010904//EN"
 "http://www.w3.org/TR/2001/REC-SVG-20010904/DTD/svg10.dtd">
<svg version="1.0" xmlns="http://www.w3.org/2000/svg"
 width="500.000000pt" height="500.000000pt" viewBox="0 0 500.000000 500.000000"
 preserveAspectRatio="xMidYMid meet">

<g transform="translate(0.000000,500.000000) scale(0.100000,-0.100000)"
fill="#000000" stroke="none">
<path d="M2415 3913 c-71 -37 -118 -109 -113 -171 2 -29 7 -37 22 -37 14 0 22
12 31 50 32 125 180 165 264 70 32 -36 47 -89 37 -127 -17 -65 -55 -99 -141
-125 -28 -8 -30 -12 -30 -53 0 -38 3 -45 20 -45 12 0 21 8 23 20 2 14 21 29
60 46 160 71 165 299 7 370 -50 23 -139 24 -180 2z"/>
<path d="M2414 3396 c-11 -29 7 -36 97 -36 88 0 90 1 87 23 -3 21 -8 22 -91
25 -70 2 -88 0 -93 -12z"/>
<path d="M2325 3256 c-39 -18 -133 -82 -210 -141 -243 -188 -367 -263 -448
-272 -36 -4 -48 -1 -74 21 -35 29 -51 33 -59 12 -16 -41 48 -86 123 -86 102 1
263 96 538 318 44 36 111 80 150 98 62 30 78 34 155 34 77 0 93 -4 155 -34 39
-18 133 -83 210 -143 173 -136 253 -191 340 -234 110 -54 223 -50 255 10 26
49 -6 64 -52 26 -28 -24 -38 -27 -79 -22 -85 10 -203 82 -444 270 -77 61 -171
125 -210 144 -65 31 -76 33 -175 33 -99 0 -110 -2 -175 -34z"/>
<path d="M2414 3165 c-11 -29 11 -36 97 -33 76 3 84 5 84 23 0 18 -8 20 -88
23 -73 2 -88 0 -93 -13z"/>
<path d="M2173 2883 c-7 -3 -13 -13 -13 -23 0 -17 -10 -20 -97 -22 -90 -3 -98
-5 -98 -23 0 -18 8 -20 97 -23 l97 -3 3 -52 c3 -44 6 -52 23 -52 17 0 20 8 23
53 l3 52 295 0 294 0 0 -44 c0 -26 6 -48 15 -56 24 -20 45 5 45 56 l0 43 93 3
c84 3 92 5 92 23 0 18 -8 20 -90 23 -83 2 -91 5 -100 25 -13 28 -37 28 -50 0
l-10 -23 -292 0 c-281 0 -293 1 -293 19 0 20 -17 31 -37 24z"/>
<path d="M1480 1955 c0 -69 3 -85 15 -85 10 0 15 11 15 35 0 32 2 35 30 35 20
0 30 5 30 15 0 10 -10 15 -30 15 -23 0 -30 4 -30 20 0 16 7 20 30 20 20 0 30
5 30 15 0 11 -12 15 -45 15 l-45 0 0 -85z"/>
<path d="M1821 2018 c-5 -13 -20 -51 -34 -85 -24 -58 -24 -63 -7 -63 10 0 20
9 23 20 4 15 14 20 40 20 27 0 37 -5 42 -20 3 -11 13 -20 22 -20 10 0 13 6 9
18 -57 153 -76 179 -95 130z m39 -70 c0 -11 -8 -18 -20 -18 -23 0 -23 0 -9 37
8 22 12 24 19 13 6 -8 10 -23 10 -32z"/>
<path d="M2137 2022 c-31 -35 -18 -64 35 -77 40 -10 54 -31 29 -44 -25 -14
-27 -14 -45 5 -9 8 -24 14 -33 12 -16 -3 -15 -6 5 -26 26 -26 68 -29 100 -6
42 29 25 57 -56 93 -8 3 -13 11 -13 16 1 14 51 19 51 6 0 -6 7 -11 15 -11 19
0 19 14 -1 34 -21 22 -67 20 -87 -2z"/>
<path d="M2450 1955 c0 -69 3 -85 15 -85 10 0 15 11 15 35 0 33 2 35 35 35 33
0 35 -2 35 -35 0 -24 5 -35 15 -35 12 0 15 16 15 85 0 69 -3 85 -15 85 -10 0
-15 -11 -15 -35 0 -33 -2 -35 -35 -35 -33 0 -35 2 -35 35 0 24 -5 35 -15 35
-12 0 -15 -16 -15 -85z"/>
<path d="M2790 1955 c0 -69 3 -85 15 -85 12 0 15 16 15 85 0 69 -3 85 -15 85
-12 0 -15 -16 -15 -85z"/>
<path d="M3055 2015 c-38 -37 -37 -88 1 -122 29 -27 54 -29 93 -8 31 15 41 33
41 70 0 37 -10 55 -41 70 -40 21 -66 19 -94 -10z m83 -21 c31 -22 26 -63 -10
-83 -24 -14 -28 -14 -47 3 -27 25 -27 61 1 80 28 20 28 20 56 0z"/>
<path d="M3400 1955 c0 -68 3 -85 14 -85 11 0 16 15 18 53 l3 52 29 -52 c43
-78 56 -71 56 32 0 68 -3 85 -14 85 -11 0 -16 -15 -18 -52 l-3 -52 -28 52
c-43 78 -57 70 -57 -33z"/>
<path d="M2017 1603 c-3 -5 10 -8 28 -8 18 0 31 3 28 8 -2 4 -15 7 -28 7 -13
0 -26 -3 -28 -7z"/>
<path d="M2123 1545 c0 -38 2 -53 4 -32 2 20 2 52 0 70 -2 17 -4 1 -4 -38z"/>
<path d="M2162 1544 c1 -67 1 -67 7 -19 l6 50 33 -44 c17 -24 32 -37 32 -28 0
8 -3 17 -8 19 -4 2 -22 23 -40 47 l-32 45 2 -70z"/>
<path d="M2297 1592 c-10 -10 -17 -23 -17 -28 0 -4 7 2 16 14 17 24 43 28 77
11 21 -10 21 -10 3 5 -26 21 -59 20 -79 -2z"/>
<path d="M2420 1545 l0 -65 38 2 c36 1 36 1 5 5 -27 4 -33 9 -33 28 0 19 6 24
33 28 l32 4 -32 1 c-28 2 -33 6 -33 26 0 20 6 25 33 29 31 4 31 4 -5 5 l-38 2
0 -65z"/>
<path d="M2592 1598 c-7 -7 -12 -16 -12 -22 0 -5 6 -2 13 8 7 10 22 17 33 14
33 -6 28 -38 -12 -79 l-38 -39 44 1 c31 2 36 3 17 6 l-28 4 26 30 c36 44 29
89 -15 89 -9 0 -21 -5 -28 -12z"/>
<path d="M2712 1598 c-6 -6 -12 -16 -12 -22 0 -5 6 -1 14 10 13 17 18 17 36 6
19 -11 21 -11 18 0 -6 18 -40 22 -56 6z"/>
<path d="M2822 1598 c-6 -6 -12 -16 -12 -22 0 -5 6 -1 14 10 13 17 18 17 36 6
19 -11 21 -11 18 0 -6 18 -40 22 -56 6z"/>
<path d="M2927 1603 c-15 -15 -6 -22 14 -11 17 11 22 10 35 -6 8 -11 14 -15
14 -10 0 25 -46 45 -63 27z"/>
<path d="M2007 1567 c3 -5 21 -16 40 -23 23 -10 33 -20 31 -32 -4 -22 -44 -28
-66 -10 -15 12 -16 11 -3 -4 24 -31 81 -20 81 16 0 15 -12 27 -44 42 -25 11
-42 16 -39 11z"/>
<path d="M2771 1552 c-3 -54 -39 -81 -60 -44 -6 9 -11 12 -11 7 0 -15 21 -35
37 -35 19 0 45 46 40 72 l-4 23 -2 -23z"/>
<path d="M2881 1552 c-3 -54 -39 -81 -60 -44 -6 9 -11 12 -11 7 0 -15 21 -35
37 -35 19 0 45 46 40 72 l-4 23 -2 -23z"/>
<path d="M2911 1549 c-1 -15 8 -37 18 -50 16 -20 23 -22 38 -13 10 6 19 20 20
30 2 15 1 14 -7 -3 -10 -25 -34 -30 -46 -11 -4 6 -11 25 -15 42 -7 30 -7 30
-8 5z"/>
<path d="M2280 1523 c0 -6 8 -17 18 -24 16 -13 16 -13 2 6 -8 11 -16 22 -17
24 -2 2 -3 0 -3 -6z"/>
<path d="M2371 1506 c-7 -8 -22 -17 -34 -19 -21 -4 -21 -4 -1 -6 22 -1 63 24
53 33 -3 4 -12 0 -18 -8z"/>
</g>
</svg>
