<?xml version="1.0" encoding="UTF-8"?>
<svg version="1.1" xmlns="http://www.w3.org/2000/svg" width="500" height="500">
<path d="M0 0 C165 0 330 0 500 0 C500 165 500 330 500 500 C335 500 170 500 0 500 C0 335 0 170 0 0 Z " fill="#FEFEFE" transform="translate(0,0)"/>
<path d="M0 0 C165 0 330 0 500 0 C500 165 500 330 500 500 C335 500 170 500 0 500 C0 335 0 170 0 0 Z M205 5 C203.74268066 5.24999756 202.48536133 5.49999512 201.18994141 5.75756836 C142.12879214 17.84272695 87.41320065 50.37919255 52 100 C51.56461914 100.59635254 51.12923828 101.19270508 50.68066406 101.80712891 C14.32933445 151.74127766 -3.94222379 216.96968843 5.58886719 278.57275391 C8.081823 293.2906676 11.28721408 307.82824192 16 322 C16.23380371 322.71333496 16.46760742 323.42666992 16.70849609 324.16162109 C25.73470207 351.27593925 39.36123663 375.63709511 57 398 C57.4336084 398.55220215 57.8672168 399.1044043 58.31396484 399.67333984 C64.95078766 408.03815373 72.37001916 415.51943893 80.07080078 422.90966797 C80.82345215 423.6420166 81.57610352 424.37436523 82.3515625 425.12890625 C83.03041504 425.77931885 83.70926758 426.42973145 84.40869141 427.09985352 C86.08876324 429.10599022 86.60423421 430.44173299 87 433 C86.55011719 432.59910156 86.10023437 432.19820313 85.63671875 431.78515625 C72.89805705 419.77704684 72.89805705 419.77704684 58 411 C55.27952647 411.26773013 55.27952647 411.26773013 53 412 C51.87367175 415.40902018 51.99958675 415.99891052 53.375 419.625 C61.17036984 433.93868251 75.44163403 442.73651696 90 449 C91.72476563 449.43699219 91.72476563 449.43699219 93.484375 449.8828125 C97.79061423 451.25123963 100.44327116 453.24172049 104 456 C102.9941687 456.02187378 102.9941687 456.02187378 101.96801758 456.04418945 C98.91561178 456.118883 95.86427415 456.21547299 92.8125 456.3125 C91.75740234 456.33505859 90.70230469 456.35761719 89.61523438 456.38085938 C88.08286133 456.4340332 88.08286133 456.4340332 86.51953125 456.48828125 C85.58214111 456.51446533 84.64475098 456.54064941 83.67895508 456.56762695 C80.55832448 457.07128473 78.59357688 458.23324144 76 460 C75.96474868 461.88658874 75.96474868 461.88658874 77 464 C86.68092411 471.60644037 102.26296357 471.98123134 114 471 C117.42243828 470.3448798 120.76770531 469.54389814 124.140625 468.671875 C131.04836216 467.0487455 138.02770886 468.19990102 145 469 C145 469.66 145 470.32 145 471 C144.03320312 471.31904297 144.03320312 471.31904297 143.046875 471.64453125 C138.78675254 473.53973958 135.08793839 476.05660294 131.25 478.6875 C130.47011719 479.19216797 129.69023437 479.69683594 128.88671875 480.21679688 C124.7777898 482.90827694 124.7777898 482.90827694 122.26367188 486.95556641 C121.90893877 489.08033639 121.90893877 489.08033639 122 492 C130.76189662 494.43740033 139.90208699 488.85747292 147.41796875 484.6640625 C150.01918002 482.9876389 152.19351934 481.11907778 154.5 479.0625 C158.14733772 476.04401361 160.35679445 475.62979144 165.0625 476.0625 C166.71512839 476.33680458 168.36472593 476.63626614 170 477 C170 477.66 170 478.32 170 479 C169.4225 479.2475 168.845 479.495 168.25 479.75 C165.61711318 481.2127149 163.87549331 482.63826769 162 485 C162.34253184 487.110633 162.34253184 487.110633 163 489 C170.7669965 489.39774093 176.89375247 489.58330461 183.828125 485.89453125 C187.71950842 484.2917852 191.86849166 484.49995633 196 485 C196.33 485.33 196.66 485.66 197 486 C196.22914063 486.48210937 195.45828125 486.96421875 194.6640625 487.4609375 C193.15972656 488.40839844 193.15972656 488.40839844 191.625 489.375 C190.62726563 490.00148438 189.62953125 490.62796875 188.6015625 491.2734375 C185.9751981 492.89269712 185.9751981 492.89269712 184 495 C184.3185177 497.10820797 184.3185177 497.10820797 185 499 C199.31142142 499.31262814 209.92833012 497.53583494 223 491 C224.61107983 490.88453363 226.22675352 490.83048788 227.84179688 490.80712891 C229.35477356 490.78303452 229.35477356 490.78303452 230.89831543 490.75845337 C235.53832327 490.71388876 240.17818707 490.67289195 244.81835938 490.64990234 C247.25856092 490.633397 249.69871522 490.60617959 252.13867188 490.56787109 C255.66561863 490.51279248 259.19142962 490.49117467 262.71875 490.4765625 C264.33807434 490.44255844 264.33807434 490.44255844 265.9901123 490.40786743 C273.54809332 490.42870231 278.51601856 492.2327196 285 496 C294.05414189 499.62165676 303.40560805 499.12127743 313 499 C313.33 497.68 313.66 496.36 314 495 C309.7045025 491.25876024 305.00099548 488.65848126 300 486 C303.49363445 484.25318277 307.17899918 484.54874684 311 485 C312.6063802 485.6090415 314.1906839 486.2789437 315.75 487 C321.75442301 489.68967845 327.53449141 489.36482494 334 489 C334.82082726 487.22396242 334.82082726 487.22396242 335 485 C333.59231728 482.76777454 333.59231728 482.76777454 331.5625 480.75 C330.90378906 480.04359375 330.24507813 479.3371875 329.56640625 478.609375 C329.04949219 478.07828125 328.53257812 477.5471875 328 477 C331.38723053 475.58191867 334.31298839 474.84575255 338 475 C340.959079 476.84432642 343.30712592 479.04212123 345.875 481.3984375 C353.30838703 487.94898789 364.03090751 493.17188091 374 493 C374.66 492.67 375.32 492.34 376 492 C376.36149972 489.68443602 376.36149972 489.68443602 376 487 C370.54199847 480.29885279 362.55596201 475.07969476 355 471 C354.34 471 353.68 471 353 471 C353 470.34 353 469.68 353 469 C361.84752962 468.08091995 370.04999263 467.66724612 378.8125 469.4375 C393.1542879 472.31661148 405.49836453 470.75069659 419 465 C419.66 464.34 420.32 463.68 421 463 C421 461.68 421 460.36 421 459 C415.41944944 456.6888629 410.07314168 456.5684355 404.125 456.375 C403.15046875 456.33632813 402.1759375 456.29765625 401.171875 456.2578125 C398.7814328 456.16406967 396.39098756 456.0783617 394 456 C399.04785112 451.86264991 403.60933033 449.04782044 409.8125 447.0625 C423.43582452 442.29932114 435.74073432 434.23099419 442.9140625 421.41015625 C444.36851342 418.18211229 444.84678561 415.52393103 445 412 C440.69237771 410.88292651 440.69237771 410.88292651 436.5703125 412.1953125 C435.76335937 412.83210938 434.95640625 413.46890625 434.125 414.125 C433.19300781 414.84945313 432.26101563 415.57390625 431.30078125 416.3203125 C430.19920428 417.21191752 429.09908115 418.1053202 428 419 C426.57696602 420.14340729 425.15377988 421.28662523 423.73046875 422.4296875 C419.80180023 425.59740941 415.89477253 428.79072507 412 432 C411.67 430.68 411.34 429.36 411 428 C411.87205078 427.61714844 411.87205078 427.61714844 412.76171875 427.2265625 C418.93504433 423.84362318 423.64501037 417.38813395 428.17578125 412.09375 C429.41467122 410.67181204 430.68449003 409.27635768 431.98046875 407.90625 C464.21377358 373.61799859 484.31949272 327.21482608 491 281 C491.11714355 280.2172168 491.23428711 279.43443359 491.35498047 278.62792969 C494.87979503 254.04326465 493.97520538 228.43639022 490 204 C489.80322236 202.62911576 489.60778056 201.25803868 489.4140625 199.88671875 C485.93201698 178.11262894 477.79549748 157.62886859 468 138 C467.55833496 137.11103027 467.11666992 136.22206055 466.66162109 135.30615234 C461.71873531 125.44070666 456.48321282 115.95356045 450 107 C449.55930176 106.39091797 449.11860352 105.78183594 448.66455078 105.15429688 C435.12069385 86.53321353 420.3919918 69.04021292 402 55 C401.01700928 54.23502197 401.01700928 54.23502197 400.01416016 53.45458984 C367.99913766 28.61769502 329.03137624 10.06749793 288.66207886 4.40042114 C286.87155628 4.13109663 285.08537924 3.83130602 283.30474854 3.50288391 C276.24662035 2.20727933 269.47251914 1.69266733 262.3046875 1.69921875 C261.2323587 1.69493362 260.16002991 1.6906485 259.0552063 1.68623352 C256.80145976 1.68053247 254.54769483 1.67995844 252.29394531 1.68432617 C248.90396553 1.68747311 245.51487159 1.66401717 242.125 1.63867188 C229.41996966 1.60052177 217.42642569 2.35475175 205 5 Z " fill="#FEFEFE" transform="translate(0,0)"/>
<path d="M0 0 C1.06138687 -0.00807175 2.12277374 -0.01614349 3.21632385 -0.02445984 C5.46459348 -0.03824836 7.71288358 -0.04899374 9.96118164 -0.05688477 C12.20929314 -0.06828672 14.4573802 -0.08854563 16.70532227 -0.1184082 C81.28104526 -0.97343109 142.22676441 26.84494474 188.33984375 71.35131836 C195.57629622 78.47815753 201.93864958 86.05599019 207.94140625 94.23828125 C208.42851074 94.89699219 208.91561523 95.55570312 209.41748047 96.234375 C227.96367816 121.44719499 242.18704111 149.13236061 250.94140625 179.23828125 C251.27108398 180.35203125 251.27108398 180.35203125 251.60742188 181.48828125 C254.91283951 192.85805655 256.52735001 204.50462311 257.94140625 216.23828125 C258.08715088 217.38248535 258.08715088 217.38248535 258.23583984 218.54980469 C259.12725031 226.26042518 259.18384707 233.98578512 259.19140625 241.73828125 C259.19241333 242.4593808 259.19342041 243.18048035 259.19445801 243.9234314 C259.18141299 257.85339615 258.07866101 271.46354384 255.94140625 285.23828125 C255.81813965 286.08503418 255.69487305 286.93178711 255.56787109 287.80419922 C250.19993869 323.56885729 234.09800162 358.1913479 212.94140625 387.23828125 C212.52391113 387.81416992 212.10641602 388.39005859 211.67626953 388.98339844 C205.76613778 397.0714407 199.24507656 404.43509675 192.37109375 411.71142578 C189.45219167 414.82870952 186.62384179 418.0281766 183.78125 421.21484375 C180.36511906 424.97186249 180.36511906 424.97186249 178.94140625 426.23828125 C178.28140625 426.23828125 177.62140625 426.23828125 176.94140625 426.23828125 C177.27140625 427.55828125 177.60140625 428.87828125 177.94140625 430.23828125 C178.40401855 429.8508374 178.86663086 429.46339355 179.34326172 429.06420898 C184.50912208 424.74734654 189.70553319 420.46999772 194.94140625 416.23828125 C195.49908691 415.78743164 196.05676758 415.33658203 196.63134766 414.87207031 C197.94634664 413.82589791 199.28633133 412.81132151 200.62890625 411.80078125 C201.33402344 411.26582031 202.03914063 410.73085938 202.765625 410.1796875 C205.76036021 408.88394031 207.83215621 409.48654555 210.94140625 410.23828125 C210.55369414 419.15565971 205.76293113 425.82294446 199.44140625 431.86328125 C191.01117706 439.01505226 181.58648264 444.30625877 170.85546875 447.05859375 C166.68592086 448.74653405 163.43004615 451.4366148 159.94140625 454.23828125 C160.5461377 454.25810059 161.15086914 454.27791992 161.77392578 454.29833984 C164.53849134 454.39414424 167.30235799 454.5035968 170.06640625 454.61328125 C171.01773437 454.64421875 171.9690625 454.67515625 172.94921875 454.70703125 C177.95850973 454.91575171 182.24507238 455.2933349 186.94140625 457.23828125 C186.19140625 461.98828125 186.19140625 461.98828125 183.94140625 464.23828125 C170.2537951 470.13811364 156.44753383 470.24788952 142.07983398 467.3059082 C135.62084359 466.01625317 129.50211699 465.91819241 122.94140625 466.73828125 C122.17828125 466.83109375 121.41515625 466.92390625 120.62890625 467.01953125 C120.07203125 467.09171875 119.51515625 467.16390625 118.94140625 467.23828125 C118.94140625 467.89828125 118.94140625 468.55828125 118.94140625 469.23828125 C119.63234375 469.47933594 120.32328125 469.72039062 121.03515625 469.96875 C124.45410266 471.46224138 127.40205443 473.41759349 130.44140625 475.55078125 C130.99699219 475.92912109 131.55257813 476.30746094 132.125 476.69726562 C135.77315363 479.23380539 138.99101956 481.91159756 141.94140625 485.23828125 C142.25390625 488.05078125 142.25390625 488.05078125 141.94140625 490.23828125 C134.23971474 492.46771826 127.31748141 489.10767194 120.50390625 485.61328125 C115.24234642 482.6653151 110.88197542 478.96731116 106.44921875 474.8984375 C104.09186998 472.97034686 104.09186998 472.97034686 101.43359375 473.421875 C100.61117188 473.69128906 99.78875 473.96070313 98.94140625 474.23828125 C97.27473958 474.57161458 95.60807292 474.90494792 93.94140625 475.23828125 C94.45832031 475.769375 94.97523438 476.30046875 95.5078125 476.84765625 C96.16652344 477.5540625 96.82523437 478.26046875 97.50390625 478.98828125 C98.16519531 479.684375 98.82648438 480.38046875 99.5078125 481.09765625 C100.94140625 483.23828125 100.94140625 483.23828125 100.65625 485.50390625 C100.42035156 486.07625 100.18445313 486.64859375 99.94140625 487.23828125 C92.20451877 487.67484543 86.3562502 487.39539046 79.30078125 484.1328125 C75.55975758 482.71444426 71.88062914 482.72040928 67.94140625 483.23828125 C67.28140625 483.56828125 66.62140625 483.89828125 65.94140625 484.23828125 C66.78445313 484.72039062 67.6275 485.2025 68.49609375 485.69921875 C69.59179688 486.33085937 70.6875 486.9625 71.81640625 487.61328125 C72.90695312 488.23976563 73.9975 488.86625 75.12109375 489.51171875 C77.94140625 491.23828125 77.94140625 491.23828125 79.94140625 493.23828125 C79.56640625 495.36328125 79.56640625 495.36328125 78.94140625 497.23828125 C65.24635395 497.59815124 54.37516959 496.20565596 41.94140625 490.23828125 C41.61140625 489.90828125 41.28140625 489.57828125 40.94140625 489.23828125 C39.37383179 489.11887159 37.80095508 489.06816623 36.22900391 489.04541016 C34.72075546 489.02131577 34.72075546 489.02131577 33.18203735 488.99673462 C28.53917017 488.95222477 23.89644926 488.91114739 19.25341797 488.88818359 C16.81321626 488.87170229 14.37306124 488.84451746 11.93310547 488.80615234 C8.40697273 488.75098906 4.88197676 488.72944025 1.35546875 488.71484375 C0.27794342 488.69217438 -0.79958191 488.669505 -1.90975952 488.64614868 C-9.73595849 488.66765737 -15.16909649 490.67690718 -22.05859375 494.23828125 C-28.53014165 496.9911368 -34.49710093 497.38231326 -41.43359375 497.30078125 C-42.16964844 497.29626953 -42.90570313 497.29175781 -43.6640625 497.28710938 C-45.46227533 497.27543267 -47.26044572 497.25750136 -49.05859375 497.23828125 C-49.38859375 495.91828125 -49.71859375 494.59828125 -50.05859375 493.23828125 C-45.84603833 490.00830699 -41.69568314 486.84664403 -37.05859375 484.23828125 C-38.66185417 482.63502083 -40.34159784 482.99078576 -42.55859375 482.92578125 C-46.40969236 482.94209946 -48.91908298 483.43521443 -52.30859375 485.23828125 C-58.25344446 488.28033098 -64.54924703 487.57161906 -71.05859375 487.23828125 C-71.734375 485.44140625 -71.734375 485.44140625 -72.05859375 483.23828125 C-70.9140625 481.53515625 -70.9140625 481.53515625 -69.24609375 479.98828125 C-68.70339844 479.4675 -68.16070312 478.94671875 -67.6015625 478.41015625 C-66.05859375 477.23828125 -66.05859375 477.23828125 -64.05859375 477.23828125 C-64.05859375 476.57828125 -64.05859375 475.91828125 -64.05859375 475.23828125 C-67.83571633 474.2196478 -71.15700191 473.80901075 -75.05859375 474.23828125 C-78.32049125 476.15042806 -81.04380565 478.39243415 -83.94921875 480.80859375 C-91.26047399 486.52166003 -100.71083652 490.61256931 -110.05859375 491.23828125 C-110.71859375 490.90828125 -111.37859375 490.57828125 -112.05859375 490.23828125 C-111.90212726 484.18079274 -111.90212726 484.18079274 -109.76025391 481.78759766 C-108.01679118 480.43604018 -106.23493134 479.23064174 -104.37109375 478.05078125 C-103.45166992 477.43299805 -103.45166992 477.43299805 -102.51367188 476.80273438 C-101.29707036 475.98865637 -100.07330906 475.18516639 -98.84228516 474.39306641 C-97.11285288 473.27340932 -95.42115163 472.10893429 -93.7265625 470.9375 C-91.05859375 469.23828125 -91.05859375 469.23828125 -89.05859375 469.23828125 C-89.05859375 468.57828125 -89.05859375 467.91828125 -89.05859375 467.23828125 C-98.86293833 466.32496969 -107.26284181 465.91057966 -116.859375 468.5234375 C-128.36088046 471.09337096 -143.80081774 469.7907656 -154.43359375 464.30078125 C-157.05859375 462.23828125 -157.05859375 462.23828125 -157.99609375 459.98828125 C-158.01671875 459.41078125 -158.03734375 458.83328125 -158.05859375 458.23828125 C-154.42790824 455.7650387 -151.92079628 454.8489573 -147.5390625 454.7265625 C-146.00668945 454.67338867 -146.00668945 454.67338867 -144.44335938 454.61914062 C-143.38826172 454.59658203 -142.33316406 454.57402344 -141.24609375 454.55078125 C-140.17166016 454.51662109 -139.09722656 454.48246094 -137.99023438 454.44726562 C-135.34645842 454.36501482 -132.70300454 454.29578916 -130.05859375 454.23828125 C-134.55732294 450.43350497 -138.23993035 447.85977941 -144.04492188 446.71435547 C-157.71287305 443.48296546 -170.79409296 432.58483897 -178.74609375 421.42578125 C-180.7709175 418.09288551 -182.05859375 415.22184667 -182.05859375 411.23828125 C-181.39859375 410.57828125 -180.73859375 409.91828125 -180.05859375 409.23828125 C-169.12251713 409.88520409 -160.10184873 419.70692638 -152.5546875 426.91796875 C-150.09106244 429.33235123 -150.09106244 429.33235123 -147.05859375 431.23828125 C-148.43428538 427.03799678 -150.28206862 424.68888572 -153.4609375 421.6484375 C-154.34612061 420.78871338 -155.23130371 419.92898926 -156.14331055 419.04321289 C-157.084729 418.13821045 -158.02614746 417.23320801 -158.99609375 416.30078125 C-167.07560105 408.4072329 -174.45350228 400.40588313 -181.05859375 391.23828125 C-181.89836932 390.11485982 -182.73953933 388.99247954 -183.58203125 387.87109375 C-204.37572041 359.88020289 -217.35987677 328.04971377 -225.05859375 294.23828125 C-225.22875 293.50593262 -225.39890625 292.77358398 -225.57421875 292.01904297 C-239.3330284 232.13560312 -225.32647 166.68178017 -193.65429688 114.76806641 C-189.16362989 107.64868279 -184.22810657 100.87688688 -179.05859375 94.23828125 C-178.60645508 93.65626953 -178.15431641 93.07425781 -177.68847656 92.47460938 C-163.37447283 74.34994246 -146.01618669 57.38996003 -127.05859375 44.23828125 C-126.45740723 43.80837891 -125.8562207 43.37847656 -125.23681641 42.93554688 C-89.87227197 17.6488811 -43.78206429 0.32476419 0 0 Z M-152.05859375 71.23828125 C-152.93451172 72.06537598 -152.93451172 72.06537598 -153.828125 72.90917969 C-163.69382899 82.26082857 -172.18092722 92.16636241 -180.05859375 103.23828125 C-180.8180127 104.29523193 -180.8180127 104.29523193 -181.59277344 105.37353516 C-209.85477244 145.04379772 -225.32103117 192.4074295 -225.24609375 241.11328125 C-225.2454895 241.83993988 -225.24488525 242.56659851 -225.2442627 243.3152771 C-225.20121858 262.44707276 -223.24976 280.57327378 -219.05859375 299.23828125 C-218.83429688 300.28757812 -218.61 301.336875 -218.37890625 302.41796875 C-208.68041844 344.68421807 -185.91959187 383.33243982 -155.55859375 413.98828125 C-154.95893799 414.59720215 -154.35928223 415.20612305 -153.74145508 415.83349609 C-153.17579834 416.39504395 -152.6101416 416.9565918 -152.02734375 417.53515625 C-151.27614258 418.28297363 -151.27614258 418.28297363 -150.50976562 419.04589844 C-148.9483505 420.47388632 -148.9483505 420.47388632 -146.05859375 421.23828125 C-145.52255556 419.8482161 -145.00541902 418.45085476 -144.49609375 417.05078125 C-144.20605469 416.27347656 -143.91601562 415.49617188 -143.6171875 414.6953125 C-142.61129271 410.27078225 -144.13711519 406.81848718 -145.93359375 402.80078125 C-151.79368473 388.32165134 -153.13365019 372.37420518 -149.05859375 357.23828125 C-147.73859375 356.90828125 -146.41859375 356.57828125 -145.05859375 356.23828125 C-138.58924001 366.63545691 -136.04619653 376.95753826 -135.49609375 389.05078125 C-135.45291016 389.93443359 -135.40972656 390.81808594 -135.36523438 391.72851562 C-135.25967839 393.89827748 -135.15868304 396.06826035 -135.05859375 398.23828125 C-131.83626857 395.76764771 -129.08873992 393.29778441 -126.49609375 390.17578125 C-124.22745253 387.44607669 -122.06174894 385.16322454 -119.05859375 383.23828125 C-116.80859375 383.55078125 -116.80859375 383.55078125 -115.05859375 384.23828125 C-117.40752467 401.85526316 -127.04666889 415.74297914 -139.05859375 428.23828125 C-137.4351957 429.9471213 -135.76540322 431.61274842 -134.05859375 433.23828125 C-133.39859375 433.23828125 -132.73859375 433.23828125 -132.05859375 433.23828125 C-131.69507813 432.32046875 -131.3315625 431.40265625 -130.95703125 430.45703125 C-124.77384119 415.21291391 -124.77384119 415.21291391 -120.05859375 411.23828125 C-118.73859375 411.23828125 -117.41859375 411.23828125 -116.05859375 411.23828125 C-112.73680602 417.8818567 -115.26273783 427.03655679 -117.32421875 433.74609375 C-118.25608149 436.90847901 -118.69515324 439.96731669 -119.05859375 443.23828125 C-116.58359375 444.72328125 -116.58359375 444.72328125 -114.05859375 446.23828125 C-114.02121094 444.98273438 -113.98382813 443.7271875 -113.9453125 442.43359375 C-113.31037398 425.19389452 -113.31037398 425.19389452 -110.05859375 417.23828125 C-108.12890625 417.59375 -108.12890625 417.59375 -106.05859375 418.23828125 C-103.39492754 423.71359512 -102.9675328 430.2624905 -102.05859375 436.23828125 C-101.19814453 436.33302734 -101.19814453 436.33302734 -100.3203125 436.4296875 C-80.68996383 439.25955567 -63.01134572 448.28552928 -49.05859375 462.23828125 C-46.19591808 462.31153293 -43.35787475 462.3306633 -40.49609375 462.30078125 C-39.28663086 462.29401367 -39.28663086 462.29401367 -38.05273438 462.28710938 C-36.05465619 462.27528643 -34.05661592 462.25735039 -32.05859375 462.23828125 C-34.57096522 459.66449625 -37.14515889 457.3184843 -39.93359375 455.05078125 C-48.34663035 447.683521 -54.44917305 436.64640894 -55.87109375 425.48828125 C-55.93296875 424.41578125 -55.99484375 423.34328125 -56.05859375 422.23828125 C-49.35523364 423.00029732 -45.67473547 427.69283083 -41.05859375 432.23828125 C-40.35089844 432.93308594 -39.64320313 433.62789063 -38.9140625 434.34375 C-32.22969586 441.37090467 -27.75313844 449.80946886 -23.46875 458.44140625 C-20.47197522 464.38726178 -18.42462212 467.83600639 -12.05859375 470.23828125 C-11.06859375 469.90828125 -10.07859375 469.57828125 -9.05859375 469.23828125 C-9.63609375 468.20703125 -10.21359375 467.17578125 -10.80859375 466.11328125 C-15.16739234 457.34898265 -17.73370929 448.02745657 -17.05859375 438.23828125 C-14.859375 438.3515625 -14.859375 438.3515625 -12.05859375 439.23828125 C-10.22296014 441.28353044 -8.75666094 443.16158845 -7.24609375 445.42578125 C-6.60087769 446.36538696 -6.60087769 446.36538696 -5.94262695 447.32397461 C1.75164674 458.69694409 8.86637376 470.7081383 11.94140625 484.23828125 C13.59140625 484.23828125 15.24140625 484.23828125 16.94140625 484.23828125 C17.13661865 483.71097412 17.33183105 483.18366699 17.53295898 482.64038086 C23.40228134 466.95879039 30.33393475 449.87948669 42.94140625 438.23828125 C45.70703125 437.44921875 45.70703125 437.44921875 47.94140625 437.23828125 C46.47697223 447.9536521 44.62403267 457.38455298 39.94140625 467.23828125 C39.61140625 468.22828125 39.28140625 469.21828125 38.94140625 470.23828125 C40.38386263 469.83911093 41.82029466 469.41813608 43.25390625 468.98828125 C44.05441406 468.75625 44.85492188 468.52421875 45.6796875 468.28515625 C50.71801198 465.95308205 52.46827133 460.31150802 54.75390625 455.55078125 C60.90585283 443.06907808 68.56927448 430.40702948 80.94140625 423.23828125 C83.81640625 422.48828125 83.81640625 422.48828125 85.94140625 422.23828125 C83.97570185 433.67680876 80.32643122 443.96382803 71.94140625 452.23828125 C71.94140625 452.89828125 71.94140625 453.55828125 71.94140625 454.23828125 C71.40515625 454.46515625 70.86890625 454.69203125 70.31640625 454.92578125 C67.13824999 456.68213076 64.66061556 458.828073 61.94140625 461.23828125 C61.94140625 461.56828125 61.94140625 461.89828125 61.94140625 462.23828125 C71.45239071 463.26867579 71.45239071 463.26867579 80.43359375 460.92578125 C82.3808873 459.11584866 84.14407728 457.19622259 85.94140625 455.23828125 C98.3863143 445.31656762 114.84303719 437.22389568 130.94140625 436.23828125 C131.06257813 435.62082031 131.18375 435.00335938 131.30859375 434.3671875 C132.44215193 428.63835885 133.65510591 422.93475418 134.94140625 417.23828125 C136.59140625 417.23828125 138.24140625 417.23828125 139.94140625 417.23828125 C142.22007246 426.66823326 143.51427362 435.54678918 143.94140625 445.23828125 C145.59140625 444.57828125 147.24140625 443.91828125 148.94140625 443.23828125 C148.65121285 441.90462649 148.35914733 440.5713791 148.06640625 439.23828125 C147.79570313 437.98917969 147.79570313 437.98917969 147.51953125 436.71484375 C147.03950808 434.65852829 146.4422829 432.6299949 145.81640625 430.61328125 C144.1870914 424.37606033 144.79139794 417.63863584 144.94140625 411.23828125 C149.46026004 411.81742609 149.46026004 411.81742609 151.53125 413.62890625 C155.95417693 419.73126341 158.97155165 426.32968331 161.94140625 433.23828125 C163.92140625 431.91828125 165.90140625 430.59828125 167.94140625 429.23828125 C166.60853649 426.22794613 165.19721311 424.36189791 162.75390625 422.17578125 C155.34504243 414.95175395 150.87168615 405.68861718 146.94140625 396.23828125 C146.56886719 395.38621094 146.19632812 394.53414063 145.8125 393.65625 C144.66070617 390.45911825 144.80930444 387.6068774 144.94140625 384.23828125 C146.75952148 383.58691406 146.75952148 383.58691406 148.94140625 383.23828125 C151.17181514 385.09446046 153.04722098 386.87554133 155.00390625 388.98828125 C155.53306641 389.54 156.06222656 390.09171875 156.60742188 390.66015625 C157.59837513 391.6946269 158.58409804 392.73415217 159.56274414 393.78027344 C160.99504002 395.29500178 162.46126772 396.77040229 163.94140625 398.23828125 C163.9671875 397.25730469 163.99296875 396.27632813 164.01953125 395.265625 C164.54671376 381.24186979 167.01335966 367.13035113 174.94140625 355.23828125 C175.93140625 355.56828125 176.92140625 355.89828125 177.94140625 356.23828125 C180.53606584 362.45157981 180.2736582 368.84372625 180.25390625 375.48828125 C180.27807617 377.09123047 180.27807617 377.09123047 180.30273438 378.7265625 C180.30826156 387.82430926 179.16688042 396.43862128 174.06640625 404.17578125 C171.70638329 408.52466629 171.92690008 411.09439167 173.12890625 415.86328125 C173.69882574 417.66613415 174.29156885 419.4626692 174.94140625 421.23828125 C177.79046066 419.94234515 179.86300413 418.57247743 182.078125 416.3671875 C182.65079102 415.79863037 183.22345703 415.23007324 183.81347656 414.64428711 C184.41256836 414.03593018 185.01166016 413.42757324 185.62890625 412.80078125 C186.25249023 412.17115479 186.87607422 411.54152832 187.51855469 410.89282227 C192.69017328 405.61084192 197.41071807 400.08004769 201.94140625 394.23828125 C202.72773438 393.26890625 203.5140625 392.29953125 204.32421875 391.30078125 C211.3844088 382.44787836 217.31870138 373.05932488 222.94140625 363.23828125 C223.63218262 362.03171875 223.63218262 362.03171875 224.33691406 360.80078125 C251.95622929 311.87181916 262.0470527 251.38512097 249.94140625 196.23828125 C249.57548125 194.43620595 249.20959549 192.63412269 248.84375 190.83203125 C239.90271575 148.70578111 217.86512912 109.05747713 187.94140625 78.23828125 C187.34457031 77.61566406 186.74773437 76.99304688 186.1328125 76.3515625 C154.08646882 43.01562753 112.24268913 19.16033945 66.94140625 9.23828125 C65.77738281 8.98175781 64.61335938 8.72523437 63.4140625 8.4609375 C-14.27272814 -7.39189998 -95.07632566 16.6476047 -152.05859375 71.23828125 Z " fill="#CA9C38" transform="translate(234.05859375,1.76171875)"/>
<path d="M0 0 C1.11479736 0.00644531 2.22959473 0.01289063 3.37817383 0.01953125 C11.93275789 0.20959144 18.2539734 1.3121677 25.8125 5.5 C26.93140625 6.06976563 28.0503125 6.63953125 29.203125 7.2265625 C37.49088739 11.57864147 44.68079737 17.06145626 51.91699219 22.95654297 C62.35480133 31.4557482 73.00894828 39.492912 84.1875 47 C85.16122559 47.65830811 86.13495117 48.31661621 87.13818359 48.99487305 C103.61360897 59.96025484 103.61360897 59.96025484 122.8125 61.5 C124.66524922 60.17839412 124.66524922 60.17839412 126.125 58.4375 C127.011875 57.468125 127.89875 56.49875 128.8125 55.5 C131.6875 55.625 131.6875 55.625 133.8125 56.5 C134.6875 58.5625 134.6875 58.5625 134.8125 61.5 C132.40235295 65.26888767 129.52027328 68.02815115 125.8125 70.5 C115.13200311 71.60407748 106.33410837 70.74223382 96.8125 65.5 C95.89380127 65.00862549 95.89380127 65.00862549 94.95654297 64.50732422 C79.65344709 56.25738359 65.90404277 45.75958811 52.5 34.75 C40.56179853 24.95576002 28.83109055 17.04770754 14.8125 10.5 C13.8225 10.005 13.8225 10.005 12.8125 9.5 C-2.39529725 7.81953329 -14.4057885 9.0490331 -27.1875 17.5 C-28.05632812 18.03882813 -28.92515625 18.57765625 -29.8203125 19.1328125 C-35.7740596 23.04302924 -41.17477868 27.73054782 -46.67407227 32.24438477 C-94.52150922 71.31064455 -94.52150922 71.31064455 -119.53125 70.94140625 C-123.99633523 70.40235216 -126.56343701 69.30946852 -129.859375 66.29296875 C-131.99040267 63.4160814 -132.32280998 61.01805947 -132.1875 57.5 C-131.5275 56.84 -130.8675 56.18 -130.1875 55.5 C-126.92705451 55.61644448 -125.9282551 56.7530724 -123.5625 59.0625 C-120.17234861 61.9623053 -117.37848473 62.23182448 -112.99609375 61.96484375 C-94.62128761 58.92367278 -78.31154415 45.25360049 -64.12451172 34.02832031 C-61.25082634 31.76095574 -58.34446311 29.53692797 -55.4375 27.3125 C-52.28475039 24.8981267 -49.14522165 22.47466695 -46.05859375 19.9765625 C-40.25735522 15.32271377 -34.35654813 11.22512987 -27.875 7.5625 C-27.22942139 7.19697021 -26.58384277 6.83144043 -25.91870117 6.45483398 C-24.02913882 5.41969927 -22.12387659 4.44446489 -20.1875 3.5 C-19.58333252 3.20270996 -18.97916504 2.90541992 -18.35668945 2.59912109 C-12.36959801 -0.0069244 -6.4552266 -0.03873233 0 0 Z " fill="#666665" transform="translate(249.1875,140.5)"/>
<path d="M0 0 C1.67542976 0.28604898 3.34385343 0.61781233 5 1 C5.495 3.475 5.495 3.475 6 6 C32.4 6 58.8 6 86 6 C86.33 4.35 86.66 2.7 87 1 C88 0 88 0 90.4375 -0.1875 C93 0 93 0 95 2 C95 3.32 95 4.64 95 6 C96.0669812 5.97643433 96.0669812 5.97643433 97.15551758 5.95239258 C100.37443104 5.89008085 103.59321768 5.85102133 106.8125 5.8125 C107.93205078 5.78736328 109.05160156 5.76222656 110.20507812 5.73632812 C111.27822266 5.72666016 112.35136719 5.71699219 113.45703125 5.70703125 C114.9416687 5.68346558 114.9416687 5.68346558 116.45629883 5.65942383 C119 6 119 6 120.8581543 7.3894043 C122 9 122 9 121.8125 11.0625 C121 13 121 13 119 15 C116.56982422 15.22705078 116.56982422 15.22705078 113.5546875 15.1953125 C112.47832031 15.18886719 111.40195312 15.18242187 110.29296875 15.17578125 C109.16503906 15.15902344 108.03710938 15.14226562 106.875 15.125 C105.73933594 15.11597656 104.60367188 15.10695312 103.43359375 15.09765625 C100.62218701 15.07403098 97.81119702 15.04109013 95 15 C95.05220703 16.13888672 95.05220703 16.13888672 95.10546875 17.30078125 C95.13253906 18.29464844 95.15960938 19.28851563 95.1875 20.3125 C95.23970703 21.79169922 95.23970703 21.79169922 95.29296875 23.30078125 C95 26 95 26 93.6171875 27.8671875 C92 29 92 29 89.9375 28.8125 C88 28 88 28 86 26 C86 22.37 86 18.74 86 15 C59.6 15 33.2 15 6 15 C6 18.96 6 22.92 6 27 C3 29 3 29 0.875 28.6875 C-1 28 -1 28 -2 27 C-2.07244053 24.98035801 -2.08377188 22.95832876 -2.0625 20.9375 C-2.05347656 19.83277344 -2.04445312 18.72804687 -2.03515625 17.58984375 C-2.02355469 16.73519531 -2.01195312 15.88054687 -2 15 C-2.7113208 15.01047363 -3.4226416 15.02094727 -4.15551758 15.03173828 C-7.37447586 15.07328001 -10.59337776 15.09932039 -13.8125 15.125 C-14.93205078 15.14175781 -16.05160156 15.15851563 -17.20507812 15.17578125 C-18.27822266 15.18222656 -19.35136719 15.18867188 -20.45703125 15.1953125 C-21.9416687 15.21102295 -21.9416687 15.21102295 -23.45629883 15.22705078 C-26 15 -26 15 -29 13 C-29.3125 10.5 -29.3125 10.5 -29 8 C-27 6 -27 6 -24.47802734 5.77294922 C-23.4411377 5.78342285 -22.40424805 5.79389648 -21.3359375 5.8046875 C-20.21445313 5.81113281 -19.09296875 5.81757813 -17.9375 5.82421875 C-16.761875 5.84097656 -15.58625 5.85773438 -14.375 5.875 C-12.59996094 5.88853516 -12.59996094 5.88853516 -10.7890625 5.90234375 C-7.85917477 5.92597188 -4.9296866 5.95891486 -2 6 C-1.855625 5.195625 -1.71125 4.39125 -1.5625 3.5625 C-1 1 -1 1 0 0 Z " fill="#6D6D6C" transform="translate(205,197)"/>
<path d="M0 0 C8.59012484 5.02148513 13.44727517 11.59182552 16.5625 20.9375 C17.45153183 29.69664969 16.05525616 36.93179254 10.984375 44.19921875 C6.50789463 49.65366892 1.79297317 53.60581391 -5.375 54.6875 C-6.385625 54.77 -7.39625 54.8525 -8.4375 54.9375 C-8.4375 56.9175 -8.4375 58.8975 -8.4375 60.9375 C-10.75 62.0625 -10.75 62.0625 -13.4375 62.9375 C-14.4275 62.2775 -15.4175 61.6175 -16.4375 60.9375 C-16.8359375 58.1875 -16.8359375 58.1875 -16.8125 54.9375 C-16.82023437 53.865 -16.82796875 52.7925 -16.8359375 51.6875 C-16.70445312 50.78 -16.57296875 49.8725 -16.4375 48.9375 C-13.43845835 46.9381389 -12.07338699 46.58161202 -8.625 46.0625 C-3.45365395 45.07640636 0.55650995 43.70460524 3.77734375 39.26171875 C7.09197054 33.75306853 8.18164872 29.33537013 7.5625 22.9375 C5.37552232 16.39700601 2.58572311 12.14844197 -3.47265625 8.77734375 C-9.35302712 6.26386515 -15.00820598 6.14770666 -21 8.4375 C-25.93836088 10.84768978 -28.98890166 14.02358935 -31.4375 18.9375 C-32.16655007 21.57596691 -32.66281645 24.12267178 -33.015625 26.8359375 C-33.4375 28.9375 -33.4375 28.9375 -35.4375 30.9375 C-39.99305556 30.38194444 -39.99305556 30.38194444 -41.4375 28.9375 C-42.28409822 20.04821866 -39.30807864 14.61548001 -34.75 7.1875 C-25.51206055 -1.80076541 -12.08625924 -5.67124472 0 0 Z " fill="#666665" transform="translate(263.4375,55.0625)"/>
<path d="M0 0 C3.00099588 -0.10890711 5.99796378 -0.18773555 9 -0.25 C9.83917969 -0.28351563 10.67835938 -0.31703125 11.54296875 -0.3515625 C17.56601 -0.44494298 21.96771914 0.61048228 27 4 C31.63289828 8.63289828 33.07956355 13.44433318 33.375 19.875 C33.24437055 24.97723245 32.17377108 28.94877457 29 33 C25.77456272 35.82624949 22.65176343 36.9213389 18.375 37.4375 C14.78674439 36.97235575 12.85653573 36.18440968 10 34 C9.67 33.34 9.34 32.68 9 32 C8.67 33.32 8.34 34.64 8 36 C5.36 36 2.72 36 0 36 C0.16226074 35.29875 0.32452148 34.5975 0.49169922 33.875 C1.02548727 30.85584143 1.12946049 28.06469455 1.1328125 25 C1.13410156 23.865625 1.13539063 22.73125 1.13671875 21.5625 C1.13285156 20.386875 1.12898437 19.21125 1.125 18 C1.12886719 16.824375 1.13273438 15.64875 1.13671875 14.4375 C1.13542969 13.303125 1.13414062 12.16875 1.1328125 11 C1.13168457 9.96875 1.13055664 8.9375 1.12939453 7.875 C1.0064857 5.14410502 0.61524816 2.65894736 0 0 Z " fill="#C99932" transform="translate(233,251)"/>
<path d="M0 0 C5.506875 -0.12375 5.506875 -0.12375 11.125 -0.25 C12.2711377 -0.28641602 13.41727539 -0.32283203 14.59814453 -0.36035156 C20.70974494 -0.42679365 24.40118851 -0.18073772 29 4 C30.44430855 6.88861709 30.37688506 8.79647701 30 12 C28 14.875 28 14.875 25 17 C22.19242993 17.40997788 19.86006586 17.24237846 17 17 C17.59348861 18.77444057 18.20022001 20.54445553 18.8125 22.3125 C19.14894531 23.29863281 19.48539063 24.28476562 19.83203125 25.30078125 C20.96314159 27.91481885 21.72662156 29.32162925 24 31 C27.4666189 31.37142345 29.91237402 31.61178961 33 29.875 C34.49672661 27.06863762 33.73294398 24.99840718 33 22 C29.52852158 21.25042843 29.52852158 21.25042843 26 21 C26.57452746 24.93075644 26.57452746 24.93075644 29 28 C24.125 27.125 24.125 27.125 23 26 C22.6875 23.125 22.6875 23.125 23 20 C24.625 18.0625 24.625 18.0625 27 17 C30.38655269 17.06911332 32.25522758 17.37935631 34.875 19.5625 C36.50250787 23.08876705 36.73429458 26.24213949 36 30 C33.65017668 34.38633687 33.65017668 34.38633687 31 36 C26.15172234 37.0332395 22.32744076 36.74668543 18 34.3125 C13.76883344 29.42021367 13.69365392 25.22903703 14 19 C14.33 18.34 14.66 17.68 15 17 C14.01 17 13.02 17 12 17 C12 15.68 12 14.36 12 13 C12.62648438 13.0721875 13.25296875 13.144375 13.8984375 13.21875 C14.71570313 13.3115625 15.53296875 13.404375 16.375 13.5 C17.18710938 13.5928125 17.99921875 13.685625 18.8359375 13.78125 C20.96912825 14.03352351 20.96912825 14.03352351 23 14 C23.28780021 10.94931773 23.40548309 8.04382639 23 5 C18.91430599 0.64192639 14.11052199 1.6110522 8 1 C8.33 12.55 8.66 24.1 9 36 C6.03 36 3.06 36 0 36 C0 24.12 0 12.24 0 0 Z " fill="#CC9E3D" transform="translate(92,251)"/>
<path d="M0 0 C9.36842105 0 9.36842105 0 14 4 C19.54876091 11.34835904 19.77442549 17.99601302 19 27 C17.77642794 30.29378641 16.2149664 32.3925168 13 34 C9.16385043 34.35519903 6.85370366 34.54724594 3.5625 32.4375 C1.41983152 29.09493717 1.50426663 26.89504791 2 23 C3.1875 21 3.1875 21 5 20 C7.625 20.375 7.625 20.375 10 21 C10.33 20.67 10.66 20.34 11 20 C11 19.34 11 18.68 11 18 C7.6675213 17.66582071 7.6675213 17.66582071 4 18 C2.68 19.32 1.36 20.64 0 22 C0 14.74 0 7.48 0 0 Z " fill="#FDFCF9" transform="translate(241,252)"/>
<path d="M0 0 C3.11233887 1.70959459 5.38719859 3.77439717 7 7 C7.35017306 12.3401391 7.46830225 15.66462219 4 20 C1.47450701 22.81689603 -0.71884281 23.2730238 -4.375 23.5 C-9.4446815 23.3494154 -11.55877551 21.61328571 -15 18 C-16.88258744 14.23482511 -16.63179563 10.09103307 -16 6 C-12.76256491 -0.52605492 -6.68146438 -1.48356665 0 0 Z " fill="#686867" transform="translate(338,314)"/>
<path d="M0 0 C2.625 1.5625 2.625 1.5625 3.625 2.5625 C3.875 5 3.875 5 3.625 7.5625 C-0.2253105 10.12937367 -1.96069763 9.39538724 -6.375 8.5625 C-6.045 7.2425 -5.715 5.9225 -5.375 4.5625 C-5.045 5.2225 -4.715 5.8825 -4.375 6.5625 C-3.055 6.5625 -1.735 6.5625 -0.375 6.5625 C-0.705 4.9125 -1.035 3.2625 -1.375 1.5625 C-3.2621875 1.500625 -3.2621875 1.500625 -5.1875 1.4375 C-5.89519531 1.41429687 -6.60289062 1.39109375 -7.33203125 1.3671875 C-9.68859719 1.42995538 -9.68859719 1.42995538 -12.375 3.5625 C-12.045 5.5425 -11.715 7.5225 -11.375 9.5625 C-6.92 10.5525 -6.92 10.5525 -2.375 11.5625 C-2.375 12.2225 -2.375 12.8825 -2.375 13.5625 C-3.13425781 13.67207031 -3.89351563 13.78164063 -4.67578125 13.89453125 C-5.66964844 14.05308594 -6.66351563 14.21164062 -7.6875 14.375 C-8.67363281 14.52582031 -9.65976562 14.67664063 -10.67578125 14.83203125 C-13.55546809 15.61133869 -14.67404287 16.14147101 -16.375 18.5625 C-16.9125463 23.3236244 -17.09002323 25.44229695 -14.5 29.5 C-11.2907959 32.61481575 -9.38194833 32.7420129 -5 32.8125 C-3.56527344 32.85117187 -3.56527344 32.85117187 -2.1015625 32.890625 C1.06511999 32.50953427 2.40134031 31.82762653 4.625 29.5625 C5.20842353 26.02019191 5.20842353 26.02019191 4.625 22.5625 C1.40126323 20.41334215 0.35796326 20.17963197 -3.375 20.5625 C-4.035 21.2225 -4.695 21.8825 -5.375 22.5625 C-5.05458603 25.16530568 -5.05458603 25.16530568 -4.375 27.5625 C-8.25 26.6875 -8.25 26.6875 -9.375 25.5625 C-9.75 22.75 -9.75 22.75 -9.375 19.5625 C-7.4375 17.125 -7.4375 17.125 -4.375 15.5625 C-1.17643021 15.27792973 1.56713338 15.58124429 4.625 16.5625 C7.62629175 19.12457832 8.4660618 20.62873809 9.125 24.5 C8.46703994 28.53000538 7.3439673 30.50366178 4.625 33.5625 C-0.25756746 36.44667149 -5.78669329 37.52824621 -11.375 36.5625 C-17.15267299 34.66519366 -21.21533778 31.76065398 -24.375 26.5625 C-24.44742816 22.43409463 -23.80056369 20.24644164 -21.625 16.75 C-19.27925254 14.46941219 -17.47941214 13.51107038 -14.375 12.5625 C-15.055625 11.840625 -15.73625 11.11875 -16.4375 10.375 C-18.375 7.5625 -18.375 7.5625 -18.375 4.9375 C-17.17107183 2.0781706 -16.02737928 1.12272311 -13.375 -0.4375 C-8.51592711 -2.05719096 -4.728558 -2.01401544 0 0 Z " fill="#CC9F3E" transform="translate(400.375,251.4375)"/>
<path d="M0 0 C2.625 1.5625 2.625 1.5625 3.625 2.5625 C3.875 5 3.875 5 3.625 7.5625 C-0.2253105 10.12937367 -1.96069763 9.39538724 -6.375 8.5625 C-6.045 7.2425 -5.715 5.9225 -5.375 4.5625 C-5.045 5.2225 -4.715 5.8825 -4.375 6.5625 C-3.055 6.5625 -1.735 6.5625 -0.375 6.5625 C-0.705 4.9125 -1.035 3.2625 -1.375 1.5625 C-3.2621875 1.500625 -3.2621875 1.500625 -5.1875 1.4375 C-5.89519531 1.41429687 -6.60289062 1.39109375 -7.33203125 1.3671875 C-9.68859719 1.42995538 -9.68859719 1.42995538 -12.375 3.5625 C-12.045 5.5425 -11.715 7.5225 -11.375 9.5625 C-6.92 10.5525 -6.92 10.5525 -2.375 11.5625 C-2.375 12.2225 -2.375 12.8825 -2.375 13.5625 C-3.13425781 13.67207031 -3.89351562 13.78164063 -4.67578125 13.89453125 C-5.66964844 14.05308594 -6.66351563 14.21164062 -7.6875 14.375 C-8.67363281 14.52582031 -9.65976563 14.67664063 -10.67578125 14.83203125 C-13.55546809 15.61133869 -14.67404287 16.14147101 -16.375 18.5625 C-16.9125463 23.3236244 -17.09002323 25.44229695 -14.5 29.5 C-11.2907959 32.61481575 -9.38194833 32.7420129 -5 32.8125 C-3.56527344 32.85117187 -3.56527344 32.85117187 -2.1015625 32.890625 C1.06511999 32.50953427 2.40134031 31.82762653 4.625 29.5625 C5.20842353 26.02019191 5.20842353 26.02019191 4.625 22.5625 C1.40126323 20.41334215 0.35796326 20.17963197 -3.375 20.5625 C-4.035 21.2225 -4.695 21.8825 -5.375 22.5625 C-5.05458603 25.16530568 -5.05458603 25.16530568 -4.375 27.5625 C-8.25 26.6875 -8.25 26.6875 -9.375 25.5625 C-9.75 22.75 -9.75 22.75 -9.375 19.5625 C-7.4375 17.125 -7.4375 17.125 -4.375 15.5625 C-1.17643021 15.27792973 1.56713338 15.58124429 4.625 16.5625 C7.62629175 19.12457832 8.4660618 20.62873809 9.125 24.5 C8.46703994 28.53000538 7.3439673 30.50366178 4.625 33.5625 C-0.24639719 36.44007312 -5.79783006 37.54607067 -11.375 36.5625 C-15.92303591 34.94412956 -20.70954704 32.67173998 -23.375 28.5625 C-24.19594286 24.0131083 -24.00386055 20.65718318 -21.6875 16.625 C-19.31029308 14.50478842 -17.40457572 13.48820369 -14.375 12.5625 C-15.055625 11.840625 -15.73625 11.11875 -16.4375 10.375 C-18.375 7.5625 -18.375 7.5625 -18.375 4.9375 C-17.17107183 2.0781706 -16.02737928 1.12272311 -13.375 -0.4375 C-8.51592711 -2.05719096 -4.728558 -2.01401544 0 0 Z " fill="#CB9E3C" transform="translate(154.375,251.4375)"/>
<path d="M0 0 C2.97 0 5.94 0 9 0 C9.13535156 0.64582031 9.27070313 1.29164063 9.41015625 1.95703125 C12.0878453 13.67793362 16.48356807 24.87744376 21 36 C18.03 36 15.06 36 12 36 C11.34996375 33.79290017 10.70515255 31.58426108 10.0625 29.375 C9.70285156 28.14523437 9.34320313 26.91546875 8.97265625 25.6484375 C8.11514028 22.43189164 7.48096015 19.29078001 7 16 C6.01 16.33 5.02 16.66 4 17 C3.26676204 19.01508358 3.26676204 19.01508358 3 21 C2.34 21 1.68 21 1 21 C0.8453125 20.0409375 0.8453125 20.0409375 0.6875 19.0625 C0.460625 18.381875 0.23375 17.70125 0 17 C-0.99 16.67 -1.98 16.34 -3 16 C-3.12246094 16.83789062 -3.24492187 17.67578125 -3.37109375 18.5390625 C-4.04384712 22.24129532 -5.0064953 25.76414522 -6.0625 29.375 C-6.42472656 30.62023437 -6.78695312 31.86546875 -7.16015625 33.1484375 C-7.57587891 34.55996094 -7.57587891 34.55996094 -8 36 C-9.32 35.67 -10.64 35.34 -12 35 C-11.77860352 34.47269287 -11.55720703 33.94538574 -11.32910156 33.40209961 C-6.74282435 22.40768116 -2.67686881 11.62324616 0 0 Z " fill="#CA9C38" transform="translate(177,251)"/>
<path d="M0 0 C2.64 0 5.28 0 8 0 C8.29132813 1.05316406 8.58265625 2.10632813 8.8828125 3.19140625 C12.07320924 14.49825671 15.73201202 25.46402405 21 36 C17.7 36 14.4 36 11 36 C10.731875 34.535625 10.46375 33.07125 10.1875 31.5625 C9.19281246 26.54612613 7.74024384 21.803073 6 17 C4.68 17 3.36 17 2 17 C2 18.32 2 19.64 2 21 C1.34 21 0.68 21 0 21 C-0.12375 20.360625 -0.2475 19.72125 -0.375 19.0625 C-0.58125 18.381875 -0.7875 17.70125 -1 17 C-1.66 16.67 -2.32 16.34 -3 16 C-5.1084005 22.60632156 -6.76583013 29.17576662 -8 36 C-9.65 36 -11.3 36 -13 36 C-12.63648438 35.19820313 -12.27296875 34.39640625 -11.8984375 33.5703125 C-7.1045797 22.7288187 -2.7875139 11.54392602 0 0 Z " fill="#CA9B36" transform="translate(318,251)"/>
<path d="M0 0 C2.97 0 5.94 0 9 0 C9.72703125 1.59714844 9.72703125 1.59714844 10.46875 3.2265625 C14.8640108 12.77873769 19.61783703 21.9676999 25 31 C25.02902168 26.58334712 25.04680608 22.16671877 25.0625 17.75 C25.07087891 16.49574219 25.07925781 15.24148438 25.08789062 13.94921875 C25.09111328 12.74394531 25.09433594 11.53867187 25.09765625 10.296875 C25.10289307 9.18666992 25.10812988 8.07646484 25.11352539 6.93261719 C25.01658493 4.42842621 24.73230276 2.3818844 24 0 C25.65 0 27.3 0 29 0 C28.67 0.99 28.34 1.98 28 3 C27.8470353 5.51054905 27.74304822 7.99888525 27.68359375 10.51171875 C27.66281265 11.23994339 27.64203156 11.96816803 27.62062073 12.71846008 C27.55531254 15.04137875 27.49632763 17.36440906 27.4375 19.6875 C27.39429695 21.26368335 27.35068208 22.83985548 27.30664062 24.41601562 C27.1996504 28.27722975 27.09833039 32.13855603 27 36 C24.36 36 21.72 36 19 36 C18.50371094 34.91203125 18.00742187 33.8240625 17.49609375 32.703125 C16.81020822 31.21860563 16.12399212 29.73423896 15.4375 28.25 C15.11458984 27.53972656 14.79167969 26.82945312 14.45898438 26.09765625 C11.34928349 19.40439529 7.77367974 13.46916526 4 7 C4 16.57 4 26.14 4 36 C2.68 36 1.36 36 0 36 C0 24.12 0 12.24 0 0 Z " fill="#C99A34" transform="translate(412,251)"/>
<path d="M0 0 C2.97 0 5.94 0 9 0 C9.72703125 1.48886719 9.72703125 1.48886719 10.46875 3.0078125 C14.99832725 12.21278839 19.83030314 21.13766252 25 30 C25 20.1 25 10.2 25 0 C26.32 0.33 27.64 0.66 29 1 C28.67 1.99 28.34 2.98 28 4 C27.84730819 6.43780377 27.74317303 8.85283901 27.68359375 11.29296875 C27.66281265 11.99899734 27.64203156 12.70502594 27.62062073 13.43244934 C27.55532509 15.68403551 27.49633353 17.93573662 27.4375 20.1875 C27.39429575 21.7155066 27.35068084 23.24350164 27.30664062 24.77148438 C27.19966426 28.51420562 27.09834078 32.2570423 27 36 C24.36 36 21.72 36 19 36 C18.63261719 34.99646484 18.63261719 34.99646484 18.2578125 33.97265625 C14.49875976 24.31577939 9.36108813 15.86366571 4 7 C4 16.57 4 26.14 4 36 C2.68 36 1.36 36 0 36 C0 24.12 0 12.24 0 0 Z " fill="#C99A34" transform="translate(201,251)"/>
<path d="M0 0 C1.65 0 3.3 0 5 0 C7.01953125 2.625 7.01953125 2.625 8.8125 6 C9.41707031 7.11375 10.02164062 8.2275 10.64453125 9.375 C11.09183594 10.24125 11.53914063 11.1075 12 12 C12.33 8.04 12.66 4.08 13 0 C14.65 0 16.3 0 18 0 C18 7.59 18 15.18 18 23 C16.02 23 14.04 23 12 23 C10.02 19.37 8.04 15.74 6 12 C5.67 15.63 5.34 19.26 5 23 C3.35 23 1.7 23 0 23 C0 15.41 0 7.82 0 0 Z " fill="#696968" transform="translate(373,314)"/>
<path d="M0 0 C2.97 0 5.94 0 9 0 C8.67 2.97 8.34 5.94 8 9 C9.98 9 11.96 9 14 9 C14.33 9.66 14.66 10.32 15 11 C12.69 11 10.38 11 8 11 C8.33 19.25 8.66 27.5 9 36 C6.03 36 3.06 36 0 36 C0 24.12 0 12.24 0 0 Z " fill="#CB9E3D" transform="translate(269,251)"/>
<path d="M0 0 C9.9 0 19.8 0 30 0 C30 2.64 30 5.28 30 8 C28.66666667 6 27.33333333 4 26 2 C23.36 1.67 20.72 1.34 18 1 C18.33 12.55 18.66 24.1 19 36 C16.03 36 13.06 36 10 36 C10.33 34.68 10.66 33.36 11 32 C11.14860808 29.61166853 11.24778427 27.22009126 11.31640625 24.828125 C11.33718735 24.1457074 11.35796844 23.46328979 11.37937927 22.76019287 C11.44452052 20.59022644 11.50359404 18.42014376 11.5625 16.25 C11.60571897 14.77472779 11.64933432 13.29946713 11.69335938 11.82421875 C11.80016518 8.21626834 11.90153153 4.60818867 12 1 C6.41499433 1.19898708 6.41499433 1.19898708 2 4 C1.30251417 5.31747324 0.63040043 6.64914193 0 8 C0 5.36 0 2.72 0 0 Z " fill="#C8972F" transform="translate(59,251)"/>
<path d="M0 0 C2.5625 1.25 2.5625 1.25 4 3 C4 4.32 4 5.64 4 7 C2.35 7 0.7 7 -1 7 C-1.33 6.34 -1.66 5.68 -2 5 C-3.65 5 -5.3 5 -7 5 C-7 5.66 -7 6.32 -7 7 C-6.30132812 7.26554687 -5.60265625 7.53109375 -4.8828125 7.8046875 C-3.51769531 8.33449219 -3.51769531 8.33449219 -2.125 8.875 C-0.76761719 9.39707031 -0.76761719 9.39707031 0.6171875 9.9296875 C3 11 3 11 5 13 C5.4446858 16.40925781 5.36050196 18.34766313 3.6875 21.375 C-0.64476946 23.99451176 -5.07728382 23.7469979 -10 23 C-12.6875 21.25 -12.6875 21.25 -14 19 C-14 17.68 -14 16.36 -14 15 C-11.625 14.8125 -11.625 14.8125 -9 15 C-8.01 16.485 -8.01 16.485 -7 18 C-3.91634129 18.2502157 -3.91634129 18.2502157 -1 18 C-0.67 17.01 -0.34 16.02 0 15 C-0.60328125 14.89042969 -1.2065625 14.78085937 -1.828125 14.66796875 C-10.69256155 12.90937892 -10.69256155 12.90937892 -13 10 C-13.52134619 6.35057669 -13.81151056 4.09377511 -11.5625 1.0625 C-7.70471276 -0.53707032 -4.11470988 -0.55869455 0 0 Z " fill="#6A6A69" transform="translate(211,314)"/>
<path d="M0 0 C1.65 0 3.3 0 5 0 C5 2.97 5 5.94 5 9 C7.64 9 10.28 9 13 9 C13 6.03 13 3.06 13 0 C14.65 0 16.3 0 18 0 C18 7.59 18 15.18 18 23 C16.35 23 14.7 23 13 23 C13 20.03 13 17.06 13 14 C10.36 14 7.72 14 5 14 C5 16.97 5 19.94 5 23 C3.35 23 1.7 23 0 23 C0 15.41 0 7.82 0 0 Z " fill="#646463" transform="translate(243,314)"/>
<path d="M0 0 C2.97 0 5.94 0 9 0 C9.39832031 1.3509375 9.79664063 2.701875 10.20703125 4.09375 C10.74203792 5.89587775 11.27720259 7.69795859 11.8125 9.5 C12.07353516 10.386875 12.33457031 11.27375 12.60351562 12.1875 C13.8406009 16.34166289 15.12588021 20.42857203 16.69921875 24.46875 C18 28 18 28 18 31 C18.66 31 19.32 31 20 31 C20.12117188 30.37351562 20.24234375 29.74703125 20.3671875 29.1015625 C20.53476562 28.28429687 20.70234375 27.46703125 20.875 26.625 C21.11863281 25.40683594 21.11863281 25.40683594 21.3671875 24.1640625 C22 22 22 22 24 20 C23.30744705 25.42499815 22.22995712 30.67018581 21 36 C18.03 36 15.06 36 12 36 C11.68869141 34.56333984 11.68869141 34.56333984 11.37109375 33.09765625 C9.25227757 23.79021026 6.27690815 15.20657087 2.48828125 6.44921875 C1 3 1 3 0 0 Z " fill="#CB9D3A" transform="translate(341,251)"/>
<path d="M0 0 C1.98 0 3.96 0 6 0 C7.3417678 3.26743656 8.67194359 6.53946908 10 9.8125 C10.3815625 10.74126953 10.763125 11.67003906 11.15625 12.62695312 C11.5171875 13.51962891 11.878125 14.41230469 12.25 15.33203125 C12.58515625 16.15421143 12.9203125 16.9763916 13.265625 17.82348633 C14 20 14 20 14 23 C12.35 23 10.7 23 9 23 C8.505 20.525 8.505 20.525 8 18 C4.7 18 1.4 18 -2 18 C-2.33 19.65 -2.66 21.3 -3 23 C-4.65 23 -6.3 23 -8 23 C-7.26905294 17.94514073 -5.31619096 13.40096821 -3.4375 8.6875 C-3.10814453 7.85154297 -2.77878906 7.01558594 -2.43945312 6.15429688 C-1.63001123 4.10136454 -0.81676543 2.05002714 0 0 Z " fill="#686867" transform="translate(157,314)"/>
<path d="M0 0 C2.97 0 5.94 0 9 0 C8.83773926 0.69601318 8.67547852 1.39202637 8.50830078 2.10913086 C7.96217122 5.21514435 7.87048188 8.10094793 7.8671875 11.25390625 C7.86589844 12.43791016 7.86460937 13.62191406 7.86328125 14.84179688 C7.86714844 16.06962891 7.87101562 17.29746094 7.875 18.5625 C7.87113281 19.79419922 7.86726563 21.02589844 7.86328125 22.29492188 C7.86521484 24.06899414 7.86521484 24.06899414 7.8671875 25.87890625 C7.86831543 26.9572876 7.86944336 28.03566895 7.87060547 29.14672852 C7.91567629 32.22465792 7.91567629 32.22465792 9 36 C5.7 36 2.4 36 -1 36 C-0.67 34.68 -0.34 33.36 0 32 C0.14298131 30.3413488 0.24541225 28.6789131 0.31640625 27.015625 C0.35830078 26.08105469 0.40019531 25.14648438 0.44335938 24.18359375 C0.50233398 22.73146484 0.50233398 22.73146484 0.5625 21.25 C0.62727539 19.77466797 0.62727539 19.77466797 0.69335938 18.26953125 C0.79922052 15.84648725 0.90130171 13.4233446 1 11 C-1.64 11.33 -4.28 11.66 -7 12 C-6.34 11.01 -5.68 10.02 -5 9 C-2.375 8.8125 -2.375 8.8125 0 9 C0 6.03 0 3.06 0 0 Z " fill="#C99A35" transform="translate(294,251)"/>
<path d="M0 0 C5.02245446 0.478329 8.0674916 1.83689542 12 5 C16.91596386 11.37746662 17.83139016 17.08991645 17 25 C15.70008994 29.58883914 13.73357592 32.89374389 9.6875 35.5 C5.69176951 37.12538189 3.26422194 37.55276951 -1 37 C-5.6 34.8 -5.6 34.8 -7 32 C-7.039992 30.00039988 -7.04346799 27.99952758 -7 26 C-6.67 26 -6.34 26 -6 26 C-5.71125 27.134375 -5.4225 28.26875 -5.125 29.4375 C-4.75375 30.613125 -4.3825 31.78875 -4 33 C-0.90826248 34.54586876 1.59429552 34.29359521 5 34 C7.36497439 32.13291495 8.66030715 30.67938569 10 28 C10.62107099 20.24170342 11.24164118 12.28996942 6 6 C4.0766916 4.4425893 2.14022227 3.2646768 0 2 C0 1.34 0 0.68 0 0 Z " fill="#CC9F3F" transform="translate(249,251)"/>
<path d="M0 0 C1.01900391 0.00322266 2.03800781 0.00644531 3.08789062 0.00976562 C4.10302734 -0.00634766 5.11816406 -0.02246094 6.1640625 -0.0390625 C7.62489258 -0.0400293 7.62489258 -0.0400293 9.11523438 -0.04101562 C10.45509399 -0.04548706 10.45509399 -0.04548706 11.82202148 -0.05004883 C14.59209934 0.39289641 15.50749943 1.08121625 17.15039062 3.32226562 C17.02539062 5.38476562 17.02539062 5.38476562 16.15039062 7.32226562 C11.89037156 10.16227834 8.220842 9.65248661 3.21289062 9.63476562 C2.30603516 9.65087891 1.39917969 9.66699219 0.46484375 9.68359375 C-0.8490332 9.68456055 -0.8490332 9.68456055 -2.18945312 9.68554688 C-2.98730225 9.68852783 -3.78515137 9.69150879 -4.60717773 9.69458008 C-7.35942925 9.23761943 -8.76302147 8.12622954 -10.84960938 6.32226562 C-9.50143048 -0.41862887 -6.10054118 0.04447048 0 0 Z " fill="#6F6F6E" transform="translate(247.849609375,124.677734375)"/>
<path d="M0 0 C13.32392307 2.14134478 26.470193 8.61987678 37 17 C37.66 17.99 38.32 18.98 39 20 C23.99688902 19.24984445 10.78518969 11.06617704 0 1 C0 0.67 0 0.34 0 0 Z " fill="#FBF7F0" transform="translate(139,443)"/>
<path d="M0 0 C1.12341797 -0.01224609 2.24683594 -0.02449219 3.40429688 -0.03710938 C5.01208008 -0.04000977 5.01208008 -0.04000977 6.65234375 -0.04296875 C8.13528931 -0.04913208 8.13528931 -0.04913208 9.64819336 -0.05541992 C12.0625 0.1875 12.0625 0.1875 14.0625 2.1875 C13.69568342 5.12203261 13.19812754 6.05187246 11.0625 8.1875 C7.43605496 8.64045333 3.77648262 8.51154802 0.125 8.5 C-0.89013672 8.51611328 -1.90527344 8.53222656 -2.95117188 8.54882812 C-4.41200195 8.54979492 -4.41200195 8.54979492 -5.90234375 8.55078125 C-7.24220337 8.55525269 -7.24220337 8.55525269 -8.60913086 8.55981445 C-11.37857576 8.11697043 -12.30356559 7.436675 -13.9375 5.1875 C-13.05770541 -2.29075404 -6.0240722 0.0034443 0 0 Z " fill="#686867" transform="translate(250.9375,156.8125)"/>
<path d="M0 0 C4.62 0 9.24 0 14 0 C14 1.32 14 2.64 14 4 C11.03 4 8.06 4 5 4 C5 5.65 5 7.3 5 9 C7.97 9 10.94 9 14 9 C14 10.65 14 12.3 14 14 C11.36 14 8.72 14 6 14 C6 16.97 6 19.94 6 23 C4.02 23 2.04 23 0 23 C0 15.41 0 7.82 0 0 Z " fill="#6F6F6F" transform="translate(109,314)"/>
<path d="M0 0 C2.33813845 2.84103415 3.61287132 5.28117191 4.625 8.8125 C4.86476563 9.62332031 5.10453125 10.43414062 5.3515625 11.26953125 C6.7315781 17.08056078 7.17816247 22.78748498 7.25 28.75 C7.27578125 30.04421875 7.3015625 31.3384375 7.328125 32.671875 C7 36 7 36 5.484375 37.953125 C4.99453125 38.29859375 4.5046875 38.6440625 4 39 C-1.30016055 28.1587625 -3.89350317 11.6805095 0 0 Z " fill="#FBF8F1" transform="translate(88,365)"/>
<path d="M0 0 C0.886875 0.804375 1.77375 1.60875 2.6875 2.4375 C10.69034863 9.28780857 19.63922935 15.18658047 29 20 C29 20.33 29 20.66 29 21 C18.90501879 22.04089004 11.03104382 20.50811995 3 14 C0.25026529 9.74117606 -0.48710655 5.03343433 0 0 Z " fill="#FCF9F4" transform="translate(133,444)"/>
<path d="M0 0 C-21.76555909 17.56937764 -21.76555909 17.56937764 -36 17 C-28.91199182 8.96692407 -10.92255553 -3.2002392 0 0 Z " fill="#FCF9F4" transform="translate(357,445)"/>
<path d="M0 0 C2.75 2.875 2.75 2.875 5 6 C5.98290968 7.01680311 6.97334787 8.02738219 8 9 C-1.95869521 11.79542322 -9.4060043 11.14630098 -19 7 C-19.33 6.34 -19.66 5.68 -20 5 C-17.99031875 3.95738341 -15.96661811 2.94176477 -13.9375 1.9375 C-12.81214844 1.36902344 -11.68679688 0.80054688 -10.52734375 0.21484375 C-6.45144863 -1.18892522 -4.14050916 -1.1038028 0 0 Z " fill="#FCF9F3" transform="translate(295,471)"/>
<path d="M0 0 C3 0.5625 3 0.5625 4.6640625 2.28515625 C6.21907878 4.93595885 6.40292162 6.5097366 6.375 9.5625 C6.38273437 10.408125 6.39046875 11.25375 6.3984375 12.125 C5.91925971 15.05644061 5.05330272 16.43689788 3 18.5625 C0 19.125 0 19.125 -3 18.5625 C-5.61093174 15.77750615 -6.20651425 13.26918656 -6.375 9.5625 C-6.15029756 4.61904632 -5.31188584 0.9959786 0 0 Z " fill="#FAFAFA" transform="translate(312,370.4375)"/>
<path d="M0 0 C0.33 0 0.66 0 1 0 C1.86968787 28.61607593 1.86968787 28.61607593 -3 38 C-3.99 38.495 -3.99 38.495 -5 39 C-8.74424391 27.76726827 -5.9384603 13.82357884 -2 3 C-1.34 2.01 -0.68 1.02 0 0 Z " fill="#FDFBF8" transform="translate(409,365)"/>
<path d="M0 0 C2.12093023 0.81164833 4.22518699 1.66793728 6.3125 2.5625 C7.38113281 3.01753906 8.44976562 3.47257812 9.55078125 3.94140625 C10.76314453 4.46541016 10.76314453 4.46541016 12 5 C7.79085825 9.20914175 1.0407499 10.79592501 -4.75 11.375 C-8.38632719 10.95542379 -11.52438843 10.13489357 -15 9 C-6.26171937 -1.63157477 -6.26171937 -1.63157477 0 0 Z " fill="#FCF9F4" transform="translate(210,471)"/>
<path d="M0 0 C0.33 0 0.66 0 1 0 C1.49355466 4.68876927 1.65365435 7.8329413 -1.25 11.6875 C-6.26366828 16.83093382 -13.13444506 19.63452935 -20.22265625 20.3046875 C-22.83732384 20.31143503 -25.39644403 20.23062996 -28 20 C-24.96604651 17.60439606 -21.81994682 15.73962448 -18.4375 13.875 C-11.74304056 10.02609703 -5.47947052 5.47947052 0 0 Z " fill="#FCFAF6" transform="translate(363,445)"/>
<path d="M0 0 C1.63671875 1.17578125 1.63671875 1.17578125 3 3 C3.3984375 5.55859375 3.3984375 5.55859375 3.375 8.4375 C3.38273437 9.38496094 3.39046875 10.33242188 3.3984375 11.30859375 C2.94178412 14.39324255 2.15078492 15.77184871 0 18 C-2.4375 18.5625 -2.4375 18.5625 -5 18 C-7.44071647 15.88911008 -8.79629972 14.26998324 -9.31640625 11.02734375 C-9.42178323 7.26889829 -9.22784674 4.09423158 -7 1 C-4.45132831 -0.27433584 -2.82594567 -0.27570202 0 0 Z " fill="#F7F7F6" transform="translate(300,371)"/>
<path d="M0 0 C1.63671875 1.17578125 1.63671875 1.17578125 3 3 C3.3984375 5.55859375 3.3984375 5.55859375 3.375 8.4375 C3.38273437 9.38496094 3.39046875 10.33242188 3.3984375 11.30859375 C2.94178412 14.39324255 2.15078492 15.77184871 0 18 C-2.4375 18.5625 -2.4375 18.5625 -5 18 C-7.44071647 15.88911008 -8.79629972 14.26998324 -9.31640625 11.02734375 C-9.42178323 7.26889829 -9.22784674 4.09423158 -7 1 C-4.45132831 -0.27433584 -2.82594567 -0.27570202 0 0 Z " fill="#F7F7F6" transform="translate(285,371)"/>
<path d="M0 0 C1.30310976 3.90932927 0.41923843 4.92180986 -1.375 8.5625 C-6.30293693 17.98489793 -12.67023417 24.91103682 -22 30 C-20.63838544 25.11594778 -18.45802407 21.31147694 -15.5 17.25 C-15.06510254 16.64526855 -14.63020508 16.04053711 -14.18212891 15.41748047 C-9.97901003 9.71636942 -5.20571123 4.8069759 0 0 Z " fill="#FCF9F4" transform="translate(313,431)"/>
<path d="M0 0 C9.9167536 8.09530906 18.50222786 17.82310471 23 30 C12.57334907 25.2143753 5.04955299 15.26632036 0.62890625 4.9453125 C0 3 0 3 0 0 Z " fill="#FBF8F2" transform="translate(183,430)"/>
<path d="M0 0 C8.26309695 8.01270007 17.50617617 17.36215546 20 29 C19.71136728 30.34371874 19.38460758 31.68054333 19 33 C11.32486737 24.93526673 0 11.85706003 0 0 Z " fill="#FBF7F0" transform="translate(383,391)"/>
<path d="M0 0 C1 2 1 2 0.25 4.43359375 C-4.25665709 15.26365408 -9.94633975 24.45675554 -18 33 C-18.97323343 30.40672583 -19.06300396 29.19904235 -18.21484375 26.51953125 C-13.42220053 16.36264516 -7.65082987 8.21396202 0 0 Z " fill="#FBF8F1" transform="translate(113,392)"/>
<path d="M0 0 C1.98440617 4.99145111 -0.71011243 9.19797005 -2.60546875 13.87109375 C-4.10385103 17.23301029 -5.73421297 20.09696037 -8 23 C-8.58587891 23.78117187 -8.58587891 23.78117187 -9.18359375 24.578125 C-11.76623295 27.89291425 -14.26791782 30.08064345 -18 32 C-14.69349602 20.01392308 -7.9874833 9.43521464 0 0 Z " fill="#FBF7F0" transform="translate(275,449)"/>
<path d="M0 0 C4.38569242 3.9769899 7.19750787 8.25412691 10.125 13.375 C10.55425781 14.10460937 10.98351562 14.83421875 11.42578125 15.5859375 C13.95535172 19.94458201 16.29150933 24.25157421 18 29 C17.67 29.99 17.34 30.98 17 32 C9.95319532 25.79881188 5.67195793 19.62007174 2 11 C1.61972656 10.12472656 1.23945313 9.24945313 0.84765625 8.34765625 C-0.19081024 5.47153476 -0.14110537 3.03376544 0 0 Z " fill="#FBF8F1" transform="translate(222,449)"/>
<path d="M0 0 C11.24271153 5.25821909 20.50137991 14.10609526 29 23 C28.34 23.33 27.68 23.66 27 24 C16.41904544 19.60963865 5.80574983 12.05385947 0 2 C0 1.34 0 0.68 0 0 Z " fill="#FAF7EE" transform="translate(59,418)"/>
<path d="M0 0 C2 1.5625 2 1.5625 3 4 C2.875 7.625 2.875 7.625 2 11 C-1 13 -1 13 -4.5625 12.8125 C-8 12 -8 12 -10 9 C-10.32162076 5.9124407 -10.48724515 3.85984439 -8.9375 1.125 C-5.85928089 -0.66235303 -3.47093932 -0.43386742 0 0 Z " fill="#FAFAFA" transform="translate(337,319)"/>
<path d="M0 0 C2.625 1.5625 2.625 1.5625 3.625 2.5625 C3.875 5 3.875 5 3.625 7.5625 C-0.2253105 10.12937367 -1.96069763 9.39538724 -6.375 8.5625 C-6.045 7.2425 -5.715 5.9225 -5.375 4.5625 C-5.045 5.2225 -4.715 5.8825 -4.375 6.5625 C-3.055 6.5625 -1.735 6.5625 -0.375 6.5625 C-0.705 4.9125 -1.035 3.2625 -1.375 1.5625 C-3.2621875 1.500625 -3.2621875 1.500625 -5.1875 1.4375 C-5.89519531 1.41429687 -6.60289062 1.39109375 -7.33203125 1.3671875 C-9.68859719 1.42995538 -9.68859719 1.42995538 -12.375 3.5625 C-12.045 5.5425 -11.715 7.5225 -11.375 9.5625 C-6.92 10.5525 -6.92 10.5525 -2.375 11.5625 C-2.375 12.2225 -2.375 12.8825 -2.375 13.5625 C-3.99824086 13.78412329 -5.623721 13.98939803 -7.25 14.1875 C-8.15492188 14.30351562 -9.05984375 14.41953125 -9.9921875 14.5390625 C-10.77851563 14.54679687 -11.56484375 14.55453125 -12.375 14.5625 C-14.63202393 12.30547607 -16.58543519 10.21599265 -18.375 7.5625 C-18.375 4.9375 -18.375 4.9375 -17.375 2.5625 C-12.30836459 -2.16635971 -6.28671554 -2.67767514 0 0 Z " fill="#CEA448" transform="translate(400.375,251.4375)"/>
<path d="M0 0 C2.625 1.5625 2.625 1.5625 3.625 2.5625 C3.875 5 3.875 5 3.625 7.5625 C-0.2253105 10.12937367 -1.96069763 9.39538724 -6.375 8.5625 C-6.045 7.2425 -5.715 5.9225 -5.375 4.5625 C-5.045 5.2225 -4.715 5.8825 -4.375 6.5625 C-3.055 6.5625 -1.735 6.5625 -0.375 6.5625 C-0.705 4.9125 -1.035 3.2625 -1.375 1.5625 C-3.2621875 1.500625 -3.2621875 1.500625 -5.1875 1.4375 C-5.89519531 1.41429687 -6.60289062 1.39109375 -7.33203125 1.3671875 C-9.68859719 1.42995538 -9.68859719 1.42995538 -12.375 3.5625 C-12.045 5.5425 -11.715 7.5225 -11.375 9.5625 C-6.92 10.5525 -6.92 10.5525 -2.375 11.5625 C-2.375 12.2225 -2.375 12.8825 -2.375 13.5625 C-3.99824086 13.78412329 -5.623721 13.98939803 -7.25 14.1875 C-8.15492188 14.30351562 -9.05984375 14.41953125 -9.9921875 14.5390625 C-10.77851563 14.54679687 -11.56484375 14.55453125 -12.375 14.5625 C-14.63202393 12.30547607 -16.58543519 10.21599265 -18.375 7.5625 C-18.375 4.9375 -18.375 4.9375 -17.375 2.5625 C-12.30836459 -2.16635971 -6.28671554 -2.67767514 0 0 Z " fill="#CEA448" transform="translate(154.375,251.4375)"/>
<path d="M0 0 C0.66 0.33 1.32 0.66 2 1 C-5.05513587 10.72285912 -12.7288698 18.29420827 -24 23 C-24.66 22.67 -25.32 22.34 -26 22 C-18.80933701 14.50502995 -11.85356629 7.55484371 -3 2 C-2.01 1.34 -1.02 0.68 0 0 Z " fill="#FCFAF5" transform="translate(437,418)"/>
<path d="M0 0 C11.34715589 0.57697403 21.3800919 5.15845373 31 11 C31 11.33 31 11.66 31 12 C19.5466752 12.97062075 8.82011827 8.20195704 0 1 C0 0.67 0 0.34 0 0 Z " fill="#FAF7EF" transform="translate(272,482)"/>
<path d="M0 0 C-6.32923306 7.12038719 -15.65449078 11.38460083 -25.19140625 12.18359375 C-26.79543541 12.18683421 -28.39936794 12.10438905 -30 12 C-27.25929052 8.64340075 -23.5418914 7.17928037 -19.6875 5.4375 C-18.71006836 4.98213867 -18.71006836 4.98213867 -17.71289062 4.51757812 C-11.80094077 1.80127684 -6.62444911 -0.31544996 0 0 Z " fill="#FBF8F2" transform="translate(225,482)"/>
<path d="M0 0 C10.64063218 1.74436593 19.9098906 6.88348543 28 14 C28 14.33 28 14.66 28 15 C16.28782256 14.43328174 8.08681993 9.36028727 0 1 C0 0.67 0 0.34 0 0 Z " fill="#FAF6EE" transform="translate(299,469)"/>
<path d="M0 0 C0.33 0 0.66 0 1 0 C2.03883958 10.22679857 -1.38495283 19.49092291 -7 28 C-7.33 28 -7.66 28 -8 28 C-8.73103257 17.50155998 -6.56289731 8.37335174 0 0 Z " fill="#FAF5EC" transform="translate(114,419)"/>
<path d="M0 0 C4.96898195 4.14081829 7.42412189 8.72232163 9 15 C9.29889758 19.02800073 9.24922715 22.97082768 9 27 C1.90268224 20.70615218 0.64259013 11.06713209 0.078125 1.984375 C0.05234375 1.32953125 0.0265625 0.6746875 0 0 Z " fill="#FBF8F2" transform="translate(382,419)"/>
<path d="M0 0 C1.32 0 2.64 0 4 0 C6.81815336 5.470533 5.59924744 10.28840201 4 16 C3.34 16 2.68 16 2 16 C1.896875 15.360625 1.79375 14.72125 1.6875 14.0625 C1.460625 13.381875 1.23375 12.70125 1 12 C0.01 11.67 -0.98 11.34 -2 11 C-2.12246094 11.83789062 -2.24492187 12.67578125 -2.37109375 13.5390625 C-3.04384712 17.24129532 -4.0064953 20.76414522 -5.0625 24.375 C-5.42472656 25.62023437 -5.78695312 26.86546875 -6.16015625 28.1484375 C-6.57587891 29.55996094 -6.57587891 29.55996094 -7 31 C-8.32 30.67 -9.64 30.34 -11 30 C-10.7733667 29.44650879 -10.5467334 28.89301758 -10.31323242 28.32275391 C-9.26655448 25.75875314 -8.22700953 23.19191494 -7.1875 20.625 C-6.83107422 19.75488281 -6.47464844 18.88476562 -6.10742188 17.98828125 C-3.72089904 12.07671092 -1.72238326 6.13779741 0 0 Z " fill="#D3AC58" transform="translate(176,256)"/>
<path d="M0 0 C2.3129482 2.3129482 2.49580975 3.47904875 3.125 6.625 C3.29257812 7.44226563 3.46015625 8.25953125 3.6328125 9.1015625 C3.75398438 9.72804688 3.87515625 10.35453125 4 11 C3.01 11.495 3.01 11.495 2 12 C1.34444881 14.52733235 1.34444881 14.52733235 1 17 C0.34 17 -0.32 17 -1 17 C-1.12375 16.360625 -1.2475 15.72125 -1.375 15.0625 C-1.58125 14.381875 -1.7875 13.70125 -2 13 C-2.66 12.67 -3.32 12.34 -4 12 C-6.1084005 18.60632156 -7.76583013 25.17576662 -9 32 C-10.65 32 -12.3 32 -14 32 C-13.62488281 31.16339844 -13.24976563 30.32679688 -12.86328125 29.46484375 C-9.48231804 21.77464281 -6.62478224 14.11913072 -4.17578125 6.08203125 C-3.09000459 3.23592564 -2.34709552 1.86009011 0 0 Z " fill="#D6B163" transform="translate(319,255)"/>
<path d="M0 0 C-7.97735772 7.76539894 -15.63482414 13.36860134 -27 14 C-21.39461384 7.62145713 -8.89412053 -2.96470684 0 0 Z " fill="#FBF7F0" transform="translate(198,470)"/>
<path d="M0 0 C1.65 0 3.3 0 5 0 C5 7.59 5 15.18 5 23 C3.35 23 1.7 23 0 23 C0 15.41 0 7.82 0 0 Z " fill="#6A6A6A" transform="translate(289,314)"/>
<path d="M0 0 C0.66 0.66 1.32 1.32 2 2 C1.625 4.625 1.625 4.625 1 7 C-0.65 6.67 -2.3 6.34 -4 6 C-4.33 6.66 -4.66 7.32 -5 8 C-2.03 8.495 -2.03 8.495 1 9 C-1 11 -1 11 -4.375 11.375 C-8 11 -8 11 -10.5 9.3125 C-12 7 -12 7 -11.9375 4.375 C-9.72475153 -1.23062945 -5.07458073 -0.3221956 0 0 Z " fill="#FBF8F2" transform="translate(399,252)"/>
<path d="M0 0 C0.66 0.66 1.32 1.32 2 2 C1.625 4.625 1.625 4.625 1 7 C-0.65 6.67 -2.3 6.34 -4 6 C-4.33 6.66 -4.66 7.32 -5 8 C-2.03 8.495 -2.03 8.495 1 9 C-1 11 -1 11 -4.375 11.375 C-8 11 -8 11 -10.5 9.3125 C-12 7 -12 7 -11.9375 4.375 C-9.72475153 -1.23062945 -5.07458073 -0.3221956 0 0 Z " fill="#FBF8F2" transform="translate(153,252)"/>
<path d="M0 0 C0.74241943 -0.00515625 1.48483887 -0.0103125 2.24975586 -0.015625 C7.55324348 0.05324348 7.55324348 0.05324348 9.8125 2.3125 C2.38743332 5.0969 -4.74425033 5.41500017 -12.5625 5.5 C-13.63443604 5.51957764 -13.63443604 5.51957764 -14.72802734 5.53955078 C-16.54942212 5.54259441 -18.37023862 5.43517554 -20.1875 5.3125 C-20.8475 4.6525 -21.5075 3.9925 -22.1875 3.3125 C-14.7056375 1.12649496 -7.77062243 0.01325056 0 0 Z " fill="#FAF6EE" transform="translate(402.1875,460.6875)"/>
<path d="M0 0 C0.66 0.66 1.32 1.32 2 2 C-8.97735523 4.62272071 -20.37107001 3.38193227 -31 0 C-23.1632635 -4.937144 -8.45757678 -2.33411829 0 0 Z " fill="#FBF8F1" transform="translate(116,463)"/>
<path d="M0 0 C4.44728941 4.44728941 6.88242482 7.74465899 10 13 C10.33 9.04 10.66 5.08 11 1 C11.66 1 12.32 1 13 1 C13 7.27 13 13.54 13 20 C8.85364233 15.85364233 6.16939543 11.89815657 3 7 C2.67 10.96 2.34 14.92 2 19 C1.34 19 0.68 19 0 19 C0 12.73 0 6.46 0 0 Z " fill="#838382" transform="translate(203,370)"/>
<path d="M0 0 C0.66 0.33 1.32 0.66 2 1 C2.08797281 4.18732254 2.14071341 7.37432788 2.1875 10.5625 C2.22520508 11.90538086 2.22520508 11.90538086 2.26367188 13.27539062 C2.32655603 18.99784892 1.65798531 22.91424859 -1 28 C-1.99 28 -2.98 28 -4 28 C-3.53079589 18.40558492 -2.05805771 9.3583379 0 0 Z " fill="#FAF5EC" transform="translate(371,428)"/>
<path d="M0 0 C0.66 0 1.32 0 2 0 C2.5067183 3.54073904 3.00417029 7.08272111 3.5 10.625 C3.64308594 11.62402344 3.78617188 12.62304688 3.93359375 13.65234375 C4.60352182 18.46944557 5.19978289 23.12196787 5 28 C2 27 2 27 1.05078125 25.42578125 C-1.71395114 17.51191764 -2.48265429 8.10866926 0 0 Z " fill="#F9F4E8" transform="translate(125,428)"/>
<path d="M0 0 C-7.96476659 6.45791885 -15.4768747 11.08323072 -25 15 C-25 12 -25 12 -23.7421875 10.640625 C-19.27981815 7.31718674 -14.62784819 4.59843474 -9.6875 2.0625 C-9.07696777 1.7437793 -8.46643555 1.42505859 -7.83740234 1.09667969 C-3.36338042 -1.12112681 -3.36338042 -1.12112681 0 0 Z " fill="#F9F5EB" transform="translate(155,473)"/>
<path d="M0 0 C9.68614655 2.15247701 17.80837716 7.28781868 25 14 C21.46857223 15.17714259 20.39704835 14.52918757 17.16259766 12.95361328 C16.24679932 12.48157471 16.24679932 12.48157471 15.3125 12 C14.37736572 11.52602783 14.37736572 11.52602783 13.42333984 11.04248047 C8.35637564 8.38071247 3.87552273 5.26066785 0 1 C0 0.67 0 0.34 0 0 Z " fill="#FAF7EE" transform="translate(343,472)"/>
<path d="M0 0 C2.9375 1.875 2.9375 1.875 5 4 C5 4.66 5 5.32 5 6 C1.125 4.125 1.125 4.125 0 3 C-4.03160191 2.73706944 -5.55892734 2.70595156 -9 5 C-9.43827201 6.90457929 -9.43827201 6.90457929 -9.3125 9 C-9.30863281 9.70125 -9.30476562 10.4025 -9.30078125 11.125 C-9.14912946 13.2416577 -9.14912946 13.2416577 -7 15 C-2.24128295 15.57824127 -2.24128295 15.57824127 1.8125 13.5 C2.204375 13.005 2.59625 12.51 3 12 C3.66 12 4.32 12 5 12 C3.63016497 15.16115776 3.0109362 15.9927092 0 18 C-4.32351988 18.56045628 -6.29704773 18.4786058 -9.9375 16 C-12.23092162 12.66411401 -12.75815509 10.90015906 -12.48046875 6.9375 C-10.87278432 0.45447986 -5.98096831 -0.96122705 0 0 Z " fill="#787877" transform="translate(231,371)"/>
<path d="M0 0 C3 0.5625 3 0.5625 4.6640625 2.28515625 C6.21907878 4.93595885 6.40292162 6.5097366 6.375 9.5625 C6.38273437 10.408125 6.39046875 11.25375 6.3984375 12.125 C5.91925971 15.05644061 5.05330272 16.43689788 3 18.5625 C0 19.125 0 19.125 -3 18.5625 C-5.61093174 15.77750615 -6.20651425 13.26918656 -6.375 9.5625 C-6.15029756 4.61904632 -5.31188584 0.9959786 0 0 Z M-2 2.5625 C-4.46751239 6.26376859 -4.30721156 8.18473532 -4 12.5625 C-3.11935073 14.91619807 -3.11935073 14.91619807 -2 16.5625 C0.47266765 16.21805119 0.47266765 16.21805119 3 15.5625 C4.17673198 13.20903604 4.16623866 11.6818967 4.1875 9.0625 C4.20876953 7.87140625 4.20876953 7.87140625 4.23046875 6.65625 C4.19666303 4.34216683 4.19666303 4.34216683 2 2.5625 C0.68 2.5625 -0.64 2.5625 -2 2.5625 Z " fill="#6F6F6E" transform="translate(312,370.4375)"/>
<path d="M0 0 C3.63 0 7.26 0 11 0 C11 0.66 11 1.32 11 2 C8.03 2 5.06 2 2 2 C2 3.98 2 5.96 2 8 C4.64 8 7.28 8 10 8 C10 8.66 10 9.32 10 10 C7.36 10 4.72 10 2 10 C2 11.98 2 13.96 2 16 C4.97 16 7.94 16 11 16 C11 16.66 11 17.32 11 18 C7.37 18 3.74 18 0 18 C0 12.06 0 6.12 0 0 Z " fill="#7A7A79" transform="translate(239,371)"/>
<path d="M0 0 C2.01822917 0.06510417 4.03645833 0.13020833 6.0546875 0.1953125 C6.7146875 1.5153125 7.3746875 2.8353125 8.0546875 4.1953125 C4.7546875 3.5353125 1.4546875 2.8753125 -1.9453125 2.1953125 C-1.6153125 3.5153125 -1.2853125 4.8353125 -0.9453125 6.1953125 C1.10591225 7.36607071 1.10591225 7.36607071 3.5546875 8.1328125 C7.9073583 9.89328763 7.9073583 9.89328763 9.3046875 12.7578125 C9.0546875 15.1953125 9.0546875 15.1953125 8.1171875 17.0078125 C4.82250638 18.90475012 1.81230286 18.38011326 -1.9453125 18.1953125 C-2.6053125 16.8753125 -3.2653125 15.5553125 -3.9453125 14.1953125 C-3.2853125 14.1953125 -2.6253125 14.1953125 -1.9453125 14.1953125 C-1.9453125 14.8553125 -1.9453125 15.5153125 -1.9453125 16.1953125 C0.6946875 15.8653125 3.3346875 15.5353125 6.0546875 15.1953125 C6.0546875 14.2053125 6.0546875 13.2153125 6.0546875 12.1953125 C5.41660156 11.91816406 4.77851563 11.64101563 4.12109375 11.35546875 C3.29480469 10.99324219 2.46851563 10.63101562 1.6171875 10.2578125 C0.79347656 9.89816406 -0.03023437 9.53851563 -0.87890625 9.16796875 C-2.9453125 8.1953125 -2.9453125 8.1953125 -3.9453125 7.1953125 C-4.1328125 4.7578125 -4.1328125 4.7578125 -3.9453125 2.1953125 C-1.9453125 0.1953125 -1.9453125 0.1953125 0 0 Z " fill="#7C7C7B" transform="translate(185.9453125,370.8046875)"/>
<path d="M0 0 C1.63671875 1.17578125 1.63671875 1.17578125 3 3 C3.3984375 5.55859375 3.3984375 5.55859375 3.375 8.4375 C3.38273437 9.38496094 3.39046875 10.33242188 3.3984375 11.30859375 C2.94178412 14.39324255 2.15078492 15.77184871 0 18 C-2.4375 18.5625 -2.4375 18.5625 -5 18 C-7.44071647 15.88911008 -8.79629972 14.26998324 -9.31640625 11.02734375 C-9.42178323 7.26889829 -9.22784674 4.09423158 -7 1 C-4.45132831 -0.27433584 -2.82594567 -0.27570202 0 0 Z M-5 2 C-7.46751239 5.70126859 -7.30721156 7.62223532 -7 12 C-6.11935073 14.35369807 -6.11935073 14.35369807 -5 16 C-1.70924004 15.62095792 -1.70924004 15.62095792 1 14 C1.1245486 12.35769636 1.17568524 10.70947724 1.1875 9.0625 C1.20876953 7.71865234 1.20876953 7.71865234 1.23046875 6.34765625 C1.23194769 3.80885466 1.23194769 3.80885466 -1 2 C-2.32 2 -3.64 2 -5 2 Z " fill="#7F7F7E" transform="translate(300,371)"/>
<path d="M0 0 C1.63671875 1.17578125 1.63671875 1.17578125 3 3 C3.3984375 5.55859375 3.3984375 5.55859375 3.375 8.4375 C3.38273437 9.38496094 3.39046875 10.33242188 3.3984375 11.30859375 C2.94178412 14.39324255 2.15078492 15.77184871 0 18 C-2.4375 18.5625 -2.4375 18.5625 -5 18 C-7.44071647 15.88911008 -8.79629972 14.26998324 -9.31640625 11.02734375 C-9.42178323 7.26889829 -9.22784674 4.09423158 -7 1 C-4.45132831 -0.27433584 -2.82594567 -0.27570202 0 0 Z M-5 2 C-7.46751239 5.70126859 -7.30721156 7.62223532 -7 12 C-6.11935073 14.35369807 -6.11935073 14.35369807 -5 16 C-1.70924004 15.62095792 -1.70924004 15.62095792 1 14 C1.1245486 12.35769636 1.17568524 10.70947724 1.1875 9.0625 C1.20876953 7.71865234 1.20876953 7.71865234 1.23046875 6.34765625 C1.23194769 3.80885466 1.23194769 3.80885466 -1 2 C-2.32 2 -3.64 2 -5 2 Z " fill="#7F7F7E" transform="translate(285,371)"/>
<path d="M0 0 C1.9375 1.0625 1.9375 1.0625 3 3 C3 7.55675083 2.45834052 9.47458525 -0.5625 12.9375 C-1.366875 13.618125 -2.17125 14.29875 -3 15 C-0.03 15.495 -0.03 15.495 3 16 C3 16.66 3 17.32 3 18 C-0.96 18 -4.92 18 -9 18 C-3.2481203 11.22556391 -3.2481203 11.22556391 -1.28125 9.4375 C-0.8584375 8.963125 -0.435625 8.48875 0 8 C-0.23043864 5.34533951 -0.23043864 5.34533951 -1 3 C-2.65 3 -4.3 3 -6 3 C-6.33 3.99 -6.66 4.98 -7 6 C-7.66 6 -8.32 6 -9 6 C-8.625 3.5625 -8.625 3.5625 -8 1 C-5.20129973 -0.39935013 -3.09501208 -0.25265405 0 0 Z " fill="#777776" transform="translate(270,371)"/>
<path d="M0 0 C5.75920802 2.03266165 10.64272666 4.77757481 14 10 C13.67 10.66 13.34 11.32 13 12 C8.05 9.69 3.1 7.38 -2 5 C-1.34 3.35 -0.68 1.7 0 0 Z " fill="#F9F5EB" transform="translate(111,449)"/>
<path d="M0 0 C1.485 0.99 1.485 0.99 3 2 C3.34057617 4.98095703 3.34057617 4.98095703 3.29296875 8.7578125 C3.28872391 9.42086395 3.28447906 10.08391541 3.28010559 10.76705933 C3.26329971 12.88678441 3.22564701 15.00556188 3.1875 17.125 C3.17245549 18.56118419 3.15876668 19.99738328 3.14648438 21.43359375 C3.1133909 24.95603764 3.0615968 28.47792636 3 32 C1.68 32 0.36 32 -1 32 C-0.67 21.44 -0.34 10.88 0 0 Z " fill="#DDBF7F" transform="translate(202,255)"/>
<path d="M0 0 C3 1 3 1 4.1875 3.0625 C4.455625 3.701875 4.72375 4.34125 5 5 C2.7101766 6.0044134 0.4183401 7.00367612 -1.875 8 C-2.52597656 8.28617187 -3.17695313 8.57234375 -3.84765625 8.8671875 C-8.7734375 11 -8.7734375 11 -11 11 C-9.52934075 7.41477124 -7.59934458 5.55613904 -4.5625 3.1875 C-3.78003906 2.56230469 -2.99757813 1.93710937 -2.19140625 1.29296875 C-1.10666016 0.65294922 -1.10666016 0.65294922 0 0 Z " fill="#FBF8F2" transform="translate(384,449)"/>
<path d="M0 0 C0.66 0.33 1.32 0.66 2 1 C2 10.9 2 20.8 2 31 C0.68 31 -0.64 31 -2 31 C-1.8820238 26.74564921 -1.7577963 22.49154179 -1.62768555 18.23754883 C-1.5842837 16.7893576 -1.54261256 15.34111346 -1.50268555 13.89282227 C-1.44510938 11.81510441 -1.38137972 9.73765427 -1.31640625 7.66015625 C-1.27974854 6.40855713 -1.24309082 5.15695801 -1.20532227 3.86743164 C-1 1 -1 1 0 0 Z " fill="#DDBF7F" transform="translate(414,256)"/>
<path d="M0 0 C0.33 0 0.66 0 1 0 C0.67 8.25 0.34 16.5 0 25 C-1.65 24.01 -3.3 23.02 -5 22 C-4.36684209 16.87475334 -3.31839344 12.03469229 -1.9375 7.0625 C-1.75123047 6.37865234 -1.56496094 5.69480469 -1.37304688 4.99023438 C-0.91910943 3.32579707 -0.46009084 1.66274688 0 0 Z " fill="#FAF6EE" transform="translate(120,423)"/>
<path d="M0 0 C3 3.1 3 3.1 3 6 C2.34 6 1.68 6 1 6 C0.34 5.01 -0.32 4.02 -1 3 C-4.08365871 2.7497843 -4.08365871 2.7497843 -7 3 C-6.42547254 6.93075644 -6.42547254 6.93075644 -4 10 C-8.875 9.125 -8.875 9.125 -10 8 C-10.3125 5.125 -10.3125 5.125 -10 2 C-6.96825255 -1.6147758 -4.31435792 -1.37692274 0 0 Z " fill="#CFA54A" transform="translate(125,269)"/>
<path d="M0 0 C9.9 0 19.8 0 30 0 C30 2.64 30 5.28 30 8 C28.66666667 6 27.33333333 4 26 2 C23.71197401 1.55121905 23.71197401 1.55121905 21.0625 1.63671875 C20.08539063 1.63736328 19.10828125 1.63800781 18.1015625 1.63867188 C16.56628906 1.6628418 16.56628906 1.6628418 15 1.6875 C13.97648437 1.68427734 12.95296875 1.68105469 11.8984375 1.67773438 C6.39932866 1.35686074 6.39932866 1.35686074 2 4 C1.30251417 5.31747324 0.63040043 6.64914193 0 8 C0 5.36 0 2.72 0 0 Z " fill="#CC9F3E" transform="translate(59,251)"/>
<path d="M0 0 C0.33 0 0.66 0 1 0 C2.43723997 5.64629987 3.76123355 11.30694567 5 17 C3.35 17.66 1.7 18.32 0 19 C-0.19425873 16.20865148 -0.38069517 13.41716313 -0.5625 10.625 C-0.61857422 9.8309375 -0.67464844 9.036875 -0.73242188 8.21875 C-1.11328125 2.2265625 -1.11328125 2.2265625 0 0 Z " fill="#FAF6EE" transform="translate(378,428)"/>
<path d="M0 0 C-2.30627646 2.85978281 -3.73346331 3.92456509 -7.3125 4.9375 C-11.80223652 5.01359723 -14.04313501 4.01880867 -18 2 C-18 1.67 -18 1.34 -18 1 C-11.96445452 0.30739642 -6.07593562 -0.11251733 0 0 Z " fill="#F9F5EB" transform="translate(183,469)"/>
<path d="M0 0 C7.5625 4.8125 7.5625 4.8125 10 8 C10.25 11.25 10.25 11.25 10 14 C4.49252332 11.63965285 2.34259016 7.25338304 0 2 C0 1.34 0 0.68 0 0 Z " fill="#FBF8F1" transform="translate(92,434)"/>
<path d="M0 0 C5.2581813 -0.31549088 8.46372627 0.29983706 13 3 C14 4 14 4 14.25 6.4375 C14.1675 7.283125 14.085 8.12875 14 9 C10.1496895 11.56687367 8.41430237 10.83288724 4 10 C4.33 8.68 4.66 7.36 5 6 C5.33 6.66 5.66 7.32 6 8 C7.32 8 8.64 8 10 8 C9.67 6.35 9.34 4.7 9 3 C4.545 2.01 4.545 2.01 0 1 C0 0.67 0 0.34 0 0 Z " fill="#D6B164" transform="translate(390,250)"/>
<path d="M0 0 C5.2581813 -0.31549088 8.46372627 0.29983706 13 3 C14 4 14 4 14.25 6.4375 C14.1675 7.283125 14.085 8.12875 14 9 C10.1496895 11.56687367 8.41430237 10.83288724 4 10 C4.33 8.68 4.66 7.36 5 6 C5.33 6.66 5.66 7.32 6 8 C7.32 8 8.64 8 10 8 C9.67 6.35 9.34 4.7 9 3 C4.545 2.01 4.545 2.01 0 1 C0 0.67 0 0.34 0 0 Z " fill="#D6B164" transform="translate(144,250)"/>
<path d="M0 0 C-1.34109296 5.49848113 -4.03476271 9.092565 -8 13 C-8.33 13 -8.66 13 -9 13 C-9.4375 9.875 -9.4375 9.875 -9 6 C-6.67578455 3.18776031 -3.81201966 0 0 0 Z " fill="#FBF8F1" transform="translate(405,435)"/>
<path d="M0 0 C2.3129482 2.3129482 2.49580975 3.47904875 3.125 6.625 C3.29257812 7.44226563 3.46015625 8.25953125 3.6328125 9.1015625 C3.81457031 10.04128906 3.81457031 10.04128906 4 11 C2.02 11.99 2.02 11.99 0 13 C-0.99 12.01 -1.98 11.02 -3 10 C-2.01 6.7 -1.02 3.4 0 0 Z " fill="#FAF7EE" transform="translate(319,255)"/>
<path d="M0 0 C6.27 0.33 12.54 0.66 19 1 C15.16298843 3.55800771 11.62631174 4.7858897 7 5 C4.22589581 4.00960943 2.4198773 2.75054954 0 1 C0 0.67 0 0.34 0 0 Z " fill="#FCFAF5" transform="translate(314,469)"/>
<path d="M0 0 C0.66 0 1.32 0 2 0 C3.60355101 3.50776784 4.22036864 6.14354879 4 10 C0.25 11.125 0.25 11.125 -2 10 C-1.125 2.25 -1.125 2.25 0 0 Z " fill="#FBF8F1" transform="translate(178,256)"/>
<path d="M0 0 C1.32 0.66 2.64 1.32 4 2 C3.01 2.33 2.02 2.66 1 3 C-0.49498913 5.98997825 -0.11577446 8.70042775 0 12 C0.75150023 15.27773504 0.75150023 15.27773504 4 17 C2.68 17.33 1.36 17.66 0 18 C-2.79385411 14.27486119 -3.45908751 11.46656688 -3.3046875 6.9375 C-2.86858343 4.16432542 -1.66616677 2.22155569 0 0 Z " fill="#7A7A79" transform="translate(309,371)"/>
<path d="M0 0 C1.32 0.33 2.64 0.66 4 1 C1.3634457 7.34648842 -1.27552165 13.69068172 -4 20 C-5.08062462 16.75812614 -4.96405231 16.10290139 -4.00390625 12.98828125 C-3.77509766 12.23095703 -3.54628906 11.47363281 -3.31054688 10.69335938 C-3.06369141 9.90767578 -2.81683594 9.12199219 -2.5625 8.3125 C-2.19801758 7.11657227 -2.19801758 7.11657227 -1.82617188 5.89648438 C-1.22520262 3.92860466 -0.6136095 1.96397505 0 0 Z " fill="#D1A953" transform="translate(370,251)"/>
<path d="M0 0 C0.33 0 0.66 0 1 0 C1.46174617 8.00360036 1.46174617 8.00360036 -0.1875 11.5625 C-2.55901674 13.4433581 -4.04938857 13.31898502 -7 13 C-7.66 11.68 -8.32 10.36 -9 9 C-6.03 9.495 -6.03 9.495 -3 10 C-1.11608215 6.73454239 -0.50712033 3.71888239 0 0 Z " fill="#6B6B6A" transform="translate(302,376)"/>
<path d="M0 0 C0.33 0 0.66 0 1 0 C1.46174617 8.00360036 1.46174617 8.00360036 -0.1875 11.5625 C-2.55901674 13.4433581 -4.04938857 13.31898502 -7 13 C-7.66 11.68 -8.32 10.36 -9 9 C-6.03 9.495 -6.03 9.495 -3 10 C-1.11608215 6.73454239 -0.50712033 3.71888239 0 0 Z " fill="#6B6B6A" transform="translate(287,376)"/>
<path d="M0 0 C0.66 0 1.32 0 2 0 C2 0.66 2 1.32 2 2 C4.31 2 6.62 2 9 2 C9 2.66 9 3.32 9 4 C5.04 4 1.08 4 -3 4 C-2.01 2.68 -1.02 1.36 0 0 Z " fill="#6B6B6B" transform="translate(264,385)"/>
<path d="M0 0 C0.66 0 1.32 0 2 0 C2.66 2.31 3.32 4.62 4 7 C2.02 7 0.04 7 -2 7 C-1.34 4.69 -0.68 2.38 0 0 Z " fill="#EEEEEE" transform="translate(159,321)"/>
<path d="M0 0 C2.92879371 0.62759865 5.36095629 1.58622659 8 3 C3.375 5.125 3.375 5.125 0 4 C0 2.68 0 1.36 0 0 Z " fill="#D0A74E" transform="translate(104,264)"/>
<path d="M0 0 C0.66 0 1.32 0 2 0 C2.33 2.64 2.66 5.28 3 8 C1.68 8 0.36 8 -1 8 C-0.67 5.36 -0.34 2.72 0 0 Z " fill="#CDA142" transform="translate(202,279)"/>
<path d="M0 0 C0.66 0.66 1.32 1.32 2 2 C5.59679066 1.67673447 5.59679066 1.67673447 9 1 C9 1.99 9 2.98 9 4 C2.25 5.125 2.25 5.125 0 4 C0 2.68 0 1.36 0 0 Z " fill="#CC9F3E" transform="translate(394,256)"/>
<path d="M0 0 C0.66 0.66 1.32 1.32 2 2 C5.59679066 1.67673447 5.59679066 1.67673447 9 1 C9 1.99 9 2.98 9 4 C2.25 5.125 2.25 5.125 0 4 C0 2.68 0 1.36 0 0 Z " fill="#CC9F3E" transform="translate(148,256)"/>
<path d="M0 0 C0.66 0.66 1.32 1.32 2 2 C-0.33623775 3.82518575 -2.08898065 5.01010373 -5.11328125 4.9765625 C-7.08537617 4.71735287 -9.04463697 4.36455921 -11 4 C-11 3.67 -11 3.34 -11 3 C-10.28972656 2.86722656 -9.57945312 2.73445313 -8.84765625 2.59765625 C-7.92855469 2.42105469 -7.00945312 2.24445313 -6.0625 2.0625 C-4.68771484 1.80146484 -4.68771484 1.80146484 -3.28515625 1.53515625 C-1.04710156 1.22285012 -1.04710156 1.22285012 0 0 Z " fill="#DAB973" transform="translate(404,282)"/>
<path d="M0 0 C0.33 0 0.66 0 1 0 C1 2.31 1 4.62 1 7 C-0.65 7 -2.3 7 -4 7 C-2.68 4.69 -1.36 2.38 0 0 Z " fill="#CEA245" transform="translate(309,280)"/>
<path d="M0 0 C0.66 0.66 1.32 1.32 2 2 C-0.33623775 3.82518575 -2.08898065 5.01010373 -5.11328125 4.9765625 C-7.08537617 4.71735287 -9.04463697 4.36455921 -11 4 C-11 3.67 -11 3.34 -11 3 C-10.28972656 2.86722656 -9.57945312 2.73445313 -8.84765625 2.59765625 C-7.92855469 2.42105469 -7.00945312 2.24445313 -6.0625 2.0625 C-4.68771484 1.80146484 -4.68771484 1.80146484 -3.28515625 1.53515625 C-1.04710156 1.22285012 -1.04710156 1.22285012 0 0 Z " fill="#DAB973" transform="translate(158,282)"/>
<path d="M0 0 C0.66 0.33 1.32 0.66 2 1 C-0.48952921 3.66735273 -2.63408134 5.55746343 -6 7 C-4.60667426 3.63279613 -3.0210714 2.0140476 0 0 Z " fill="#F9F5EB" transform="translate(109,416)"/>
<path d="M0 0 C2.5654594 2.5654594 2.54046087 4.47686668 3 8 C1.68 8 0.36 8 -1 8 C-0.67 5.36 -0.34 2.72 0 0 Z " fill="#CA9B36" transform="translate(413,279)"/>
<path d="M0 0 C0.33 0 0.66 0 1 0 C3 6.625 3 6.625 3 10 C0.9375 8.375 0.9375 8.375 -1 6 C-0.75 2.75 -0.75 2.75 0 0 Z " fill="#7F7F7E" transform="translate(220,378)"/>
<path d="M0 0 C0.66 0.33 1.32 0.66 2 1 C2.33 1.99 2.66 2.98 3 4 C3.66 4.66 4.32 5.32 5 6 C3.35 5.67 1.7 5.34 0 5 C-0.5625 3.0625 -0.5625 3.0625 -1 1 C-0.67 0.67 -0.34 0.34 0 0 Z " fill="#D4AE5D" transform="translate(116,273)"/>
</svg>
